<svg xmlns="http://www.w3.org/2000/svg" fill="none" viewBox="0 0 189 29">
  <g>
    <g>
      <path fill="#FFF" fill-rule="evenodd" d="M6.444 0h12.89v3.222H6.443V0ZM3.222 25.778h19.334V29H3.222v-3.222ZM19.333 3.222h6.445v3.222h-6.445V3.222ZM0 3.222h6.444v3.222H0V3.222Zm6.444 3.222h12.89v3.223H6.443V6.444Zm0 6.445h12.89v3.222H6.443V12.89Zm0 6.444h12.89v3.223H6.443v-3.223Zm0-16.11h3.223v3.221H6.444V3.222Zm9.667 0h3.222v3.221h-3.222V3.222Zm6.445 3.221h3.222V29h-3.222V6.444ZM0 6.444h3.222V29H0V6.444Z" clip-rule="evenodd"/>
    </g>
    <path stroke="#FFF" stroke-linecap="round" d="M37.778 1v27"/>
    <path fill="#FFF" d="M57.638 17.282h-7.44v.05c0 1.693.206 2.893.62 3.6.407.707 1.107 1.06 2.1 1.06 1.627 0 2.48-.84 2.56-2.52l2 .09c-.114 1.12-.523 2.003-1.23 2.65-.7.653-1.837.98-3.41.98-1.807 0-3.1-.5-3.88-1.5-.787-1-1.18-2.517-1.18-4.55 0-1.827.373-3.29 1.12-4.39.74-1.107 2.046-1.66 3.92-1.66 1.806 0 3.063.547 3.77 1.64.7 1.1 1.05 2.537 1.05 4.31v.24Zm-4.87-4.99c-.847 0-1.464.313-1.85.94-.38.62-.61 1.57-.69 2.85h5.06c-.047-1.247-.257-2.19-.63-2.83-.38-.64-1.01-.96-1.89-.96Zm7.27 3.31h7.08v1.71h-7.08v-1.71Zm11.36 6.07h7.8v1.23h-10.3v-1.56l7.54-11.93h-7.13v-1.22h9.69v1.51l-7.6 11.97Zm12.57 1.52c-.974 0-1.743-.27-2.31-.81-.573-.533-.86-1.263-.86-2.19 0-.993.356-1.773 1.07-2.34.713-.573 1.797-.987 3.25-1.24l2.67-.43v-1.18c0-1.807-.69-2.71-2.07-2.71-.814 0-1.404.233-1.77.7-.367.46-.577 1.17-.63 2.13l-2.01-.21c.093-1.267.476-2.22 1.15-2.86.673-.64 1.776-.96 3.31-.96 1.486 0 2.6.333 3.34 1 .733.66 1.1 1.663 1.1 3.01v7.8h-1.53l-.75-1.68a4.946 4.946 0 0 1-1.77 1.46c-.694.34-1.424.51-2.19.51Zm.87-1.28c.54 0 1.08-.16 1.62-.48.533-.32.977-.693 1.33-1.12v-3.15l-2.35.46c-.8.173-1.407.453-1.82.84-.407.38-.61.9-.61 1.56 0 .573.163 1.033.49 1.38.333.34.78.51 1.34.51Zm21.72-10.82c1.226 0 2.14.32 2.74.96.6.64.9 1.543.9 2.71v8.14h-2.4v-8.21c0-.733-.167-1.293-.5-1.68-.333-.387-.82-.58-1.46-.58-.96 0-1.85.353-2.67 1.06.113.447.17.87.17 1.27v8.14h-2.45v-8.21c0-1.507-.67-2.26-2.01-2.26-.913 0-1.763.337-2.55 1.01v9.46h-2.42v-11.52h1.05l.94 1.17a6.972 6.972 0 0 1 1.73-1.05 5.018 5.018 0 0 1 1.99-.41c1.533 0 2.596.497 3.19 1.49.5-.433 1.073-.79 1.72-1.07a5.053 5.053 0 0 1 2.03-.42Zm11.73 12.1c-1.934 0-3.28-.557-4.04-1.67-.76-1.113-1.14-2.573-1.14-4.38 0-1.827.38-3.29 1.14-4.39.76-1.107 2.106-1.66 4.04-1.66 1.92 0 3.263.557 4.03 1.67.773 1.113 1.16 2.573 1.16 4.38 0 4.033-1.73 6.05-5.19 6.05Zm0-1.2c1.06 0 1.783-.427 2.17-1.28.393-.847.59-2.037.59-3.57 0-1.553-.19-2.75-.57-3.59-.387-.84-1.117-1.26-2.19-1.26s-1.8.417-2.18 1.25c-.387.833-.58 2.033-.58 3.6 0 1.553.193 2.75.58 3.59.38.84 1.107 1.26 2.18 1.26Zm-1.53-12.39 2.95-3.79 1.49 1.73-3.94 2.61-.5-.55Zm21.5 1.78h1.44l-3 11.52h-2.66l-1.85-8.19-2.07 8.19h-2.68l-2.55-11.52h2.45l1.97 9.65 2.33-9.65h1.41l-.02.05.07-.05h.79l2.02 9.69 2.35-9.69Zm4.85-1.51c-.42 0-.774-.15-1.06-.45a1.437 1.437 0 0 1-.43-1.04c0-.42.143-.777.43-1.07.286-.293.64-.44 1.06-.44.413 0 .77.147 1.07.44.293.293.44.65.44 1.07 0 .4-.154.747-.46 1.04-.3.3-.65.45-1.05.45Zm1.15 1.51v11.52h-2.38v-11.52h2.38Zm12.96 5.9h-7.44v.05c0 1.693.203 2.893.61 3.6.407.707 1.106 1.06 2.1 1.06 1.633 0 2.49-.84 2.57-2.52l1.99.09c-.114 1.12-.52 2.003-1.22 2.65-.707.653-1.844.98-3.41.98-1.807 0-3.104-.5-3.89-1.5-.78-1-1.17-2.517-1.17-4.55 0-1.827.37-3.29 1.11-4.39.747-1.107 2.056-1.66 3.93-1.66 1.806 0 3.06.547 3.76 1.64.706 1.1 1.06 2.537 1.06 4.31v.24Zm-4.87-4.99c-.847 0-1.464.313-1.85.94-.387.62-.62 1.57-.7 2.85h5.07c-.047-1.247-.26-2.19-.64-2.83-.374-.64-1-.96-1.88-.96Zm13.85-1.2c2.46 0 3.69 1.223 3.69 3.67v8.14h-2.42v-7.95c0-.86-.154-1.493-.46-1.9-.3-.413-.78-.62-1.44-.62-.974 0-1.934.37-2.88 1.11v9.36h-2.42v-11.52h1.05l.96 1.2a7.79 7.79 0 0 1 1.91-1.08c.7-.273 1.37-.41 2.01-.41Zm8.59-1.22c-.42 0-.774-.15-1.06-.45a1.437 1.437 0 0 1-.43-1.04c0-.42.143-.777.43-1.07.286-.293.64-.44 1.06-.44.413 0 .77.147 1.07.44.293.293.44.65.44 1.07 0 .4-.153.747-.46 1.04-.3.3-.65.45-1.05.45Zm1.15 1.51v11.52h-2.38v-11.52h2.38Zm6.29 11.81c-.98 0-1.753-.27-2.32-.81-.567-.533-.85-1.263-.85-2.19 0-.993.357-1.773 1.07-2.34.713-.573 1.796-.987 3.25-1.24l2.66-.43v-1.18c0-1.807-.687-2.71-2.06-2.71-.814 0-1.407.233-1.78.7-.367.46-.574 1.17-.62 2.13l-2.02-.21c.1-1.267.486-2.22 1.16-2.86.667-.64 1.77-.96 3.31-.96 1.486 0 2.596.333 3.33 1 .74.66 1.11 1.663 1.11 3.01v7.8h-1.54l-.74-1.68a5.04 5.04 0 0 1-1.78 1.46c-.687.34-1.414.51-2.18.51Zm.86-1.28c.546 0 1.086-.16 1.62-.48.54-.32.983-.693 1.33-1.12v-3.15l-2.35.46c-.8.173-1.403.453-1.81.84-.407.38-.61.9-.61 1.56 0 .573.163 1.033.49 1.38.326.34.77.51 1.33.51Z"/>
  </g>
  <defs>
    <clipPath>
      <path fill="#fff" d="M0 0h188.466v29H0z"/>
    </clipPath>
    <clipPath>
      <path fill="#fff" d="M0 0h25.778v29H0z"/>
    </clipPath>
  </defs>
</svg>