<svg width="692" height="532" viewBox="0 0 692 532" fill="none" xmlns="http://www.w3.org/2000/svg">
<g clip-path="url(#clip0_595_124)">
<path d="M107.412 17.6905C112.616 18.6657 116.242 24.9572 117.538 31.3341C118.834 37.7111 118.413 44.4156 118.938 50.9624C119.463 57.5093 121.241 64.4618 125.597 68.1534C121.044 67.3102 116.884 63.6374 114.724 58.5554C114.93 59.8276 114.808 61.1311 114.371 62.3433C113.934 63.5556 113.196 64.6369 112.226 65.4856C110.446 66.8432 108.368 67.7574 106.164 68.1527L88.424 72.7289C85.2011 73.5603 81.7902 74.3794 78.6804 73.0333C74.6929 71.3071 72.1741 66.4699 70.1947 61.81C67.697 56.2967 65.9705 50.4657 65.0638 44.4814C64.2817 38.3712 64.837 31.83 67.3963 26.5338C68.845 23.6149 70.8999 21.0386 73.4236 18.9771C75.9474 16.9156 78.8819 15.4163 82.0313 14.5794C87.8752 12.9401 93.9436 13.2922 99.9258 13.6529C103.324 13.8577 106.848 14.1043 109.853 16.0982" fill="#2C8BC3"/>
<path d="M103.603 504.233H116.002L121.901 456.407L103.601 456.408L103.603 504.233Z" fill="#FFB8B8"/>
<path d="M120.128 505.349V496.944L116.868 497.143L103.6 497.929L100.529 498.117L98.181 526.269L98.0552 527.779H106.859L107.142 526.28L108.421 519.467L111.722 526.28L112.446 527.779H135.787C137.176 527.77 138.505 527.213 139.486 526.23C140.467 525.247 141.021 523.917 141.027 522.528C142.012 517.926 122.602 507.98 120.128 505.349Z" fill="#074268"/>
<path d="M254.973 466.497L265.419 459.817L244.624 416.347L229.207 426.207L254.973 466.497Z" fill="#FFB8B8"/>
<path d="M269.496 458.535L264.968 451.453L262.329 453.377L251.574 461.188L249.088 463.001L262.277 487.983L262.984 489.322L270.401 484.579L269.832 483.164L267.239 476.736L273.69 480.697L275.107 481.57L294.772 468.995C295.937 468.24 296.757 467.055 297.054 465.698C297.351 464.341 297.101 462.922 296.358 461.748C294.709 457.341 272.997 459.419 269.496 458.535Z" fill="#074268"/>
<path d="M545.814 70.8161H341.408C340.239 70.8161 339.118 70.3516 338.291 69.525C337.464 68.6983 337 67.5771 337 66.408C337 65.239 337.464 64.1177 338.291 63.2911C339.118 62.4644 340.239 62 341.408 62H545.814C546.983 62 548.105 62.4644 548.931 63.2911C549.758 64.1177 550.222 65.239 550.222 66.408C550.222 67.5771 549.758 68.6983 548.931 69.525C548.105 70.3516 546.983 70.8161 545.814 70.8161V70.8161Z" fill="#80B9DB"/>
<path d="M526.814 164.816H322.408C321.239 164.816 320.118 164.352 319.291 163.525C318.464 162.698 318 161.577 318 160.408C318 159.239 318.464 158.118 319.291 157.291C320.118 156.464 321.239 156 322.408 156H526.814C527.983 156 529.105 156.464 529.931 157.291C530.758 158.118 531.222 159.239 531.222 160.408C531.222 161.577 530.758 162.698 529.931 163.525C529.105 164.352 527.983 164.816 526.814 164.816V164.816Z" fill="#80B9DB"/>
<path d="M631.16 117.773H323.279C322.11 117.773 320.989 117.309 320.162 116.482C319.335 115.655 318.871 114.534 318.871 113.365C318.871 112.196 319.335 111.075 320.162 110.248C320.989 109.421 322.11 108.957 323.279 108.957H631.16C632.329 108.957 633.45 109.421 634.276 110.248C635.103 111.075 635.568 112.196 635.568 113.365C635.568 114.534 635.103 115.655 634.276 116.482C633.45 117.309 632.329 117.773 631.16 117.773V117.773Z" fill="#80B9DB"/>
<path d="M549 177.307C548.735 177.307 548.48 177.201 548.293 177.014C548.105 176.826 548 176.572 548 176.307V143C548 142.735 548.105 142.48 548.293 142.293C548.48 142.105 548.735 142 549 142C549.265 142 549.52 142.105 549.707 142.293C549.895 142.48 550 142.735 550 143V176.307C550 176.572 549.895 176.826 549.707 177.014C549.52 177.201 549.265 177.307 549 177.307Z" fill="#074268"/>
<path d="M301.41 49.3499C301.41 49.0846 301.515 48.8303 301.703 48.6427C301.89 48.4552 302.145 48.3499 302.41 48.3499H335.717C335.982 48.3499 336.236 48.4552 336.424 48.6427C336.611 48.8303 336.717 49.0846 336.717 49.3499C336.717 49.6151 336.611 49.8694 336.424 50.057C336.236 50.2445 335.982 50.3499 335.717 50.3499H302.41C302.145 50.3498 301.89 50.2445 301.703 50.0569C301.515 49.8694 301.41 49.6151 301.41 49.3499Z" fill="#074268"/>
<path d="M319.063 83.9875C318.798 83.9875 318.544 83.8822 318.356 83.6946C318.169 83.5071 318.063 83.2527 318.063 82.9875V49.6809C318.063 49.4157 318.169 49.1613 318.356 48.9738C318.544 48.7863 318.798 48.6809 319.063 48.6809C319.329 48.6809 319.583 48.7863 319.77 48.9738C319.958 49.1613 320.063 49.4157 320.063 49.6809V82.9875C320.063 83.2527 319.958 83.5071 319.77 83.6946C319.583 83.8821 319.329 83.9875 319.063 83.9875V83.9875Z" fill="#074268"/>
<path d="M136.52 192.822L65.7624 205.097L66.4029 215.858C66.4029 215.858 52.7907 262.303 60.0633 276.35C67.3358 290.397 72.8041 327.184 72.8041 327.184C72.8041 327.184 45.8217 470.555 78.4425 473.452C111.063 476.35 150.189 473.364 150.126 463.857C150.063 454.35 124.961 281.084 124.961 281.084C124.961 281.084 167.063 373.205 175.063 373.277C183.063 373.35 183.063 373.35 183.063 380.35C183.063 387.35 173.063 381.861 183.063 392.106C193.063 402.35 206.953 447.267 219.008 446.808C231.063 446.35 286.315 413.492 286.189 405.421C286.063 397.35 136.52 192.822 136.52 192.822Z" fill="#2C8BC3"/>
<path d="M65.9053 207.498L69.0633 171.35L53.8034 114.773C53.8034 114.773 50.6454 86.5546 59.8543 84.4522C69.0633 82.3499 72.4028 82.1845 72.4028 82.1845L78.6144 70.3499H99.5908L110.063 80.3499C110.063 80.3499 124.063 89.3499 124.063 93.3499C124.063 97.3499 138.977 176.775 136.52 178.562C134.063 180.35 133.439 182.726 136.751 183.038C140.063 183.35 146.063 181.35 142.063 185.35C139.501 188.101 137.604 191.403 136.52 195.003L65.9053 207.498Z" fill="#074268"/>
<path d="M218.973 199.599C218.706 198.231 218.146 196.938 217.33 195.809C216.515 194.679 215.464 193.74 214.25 193.056C213.036 192.373 211.688 191.961 210.299 191.85C208.91 191.739 207.514 191.931 206.207 192.412L173.315 157.53L161.429 164.255L200.799 205.4C201.773 207.541 203.498 209.249 205.648 210.202C207.798 211.155 210.222 211.287 212.462 210.572C214.703 209.857 216.603 208.345 217.803 206.322C219.002 204.3 219.419 201.908 218.973 199.599L218.973 199.599Z" fill="#FFB8B8"/>
<path d="M90.8668 80.4527C90.8668 80.4527 84.9915 102.903 94.0205 110.751C103.05 118.599 110.13 126.962 114.704 128.741C119.279 130.52 141.029 156.832 145.32 156.951C149.61 157.071 147.271 162.41 153.504 163.905C159.738 165.4 161.397 165.116 161.681 166.775C161.965 168.434 179.685 185.741 179.685 185.741L192.516 174.108L130.911 95.1916C126.272 89.2486 120.065 84.7197 112.989 82.1155C105.914 79.5114 98.2519 78.9355 90.8668 80.4527H90.8668Z" fill="#074268"/>
<path d="M241.945 192.567L54.5397 274.184C54.009 274.415 53.4379 274.539 52.8591 274.55C52.2804 274.56 51.7052 274.457 51.1665 274.245C50.6278 274.033 50.136 273.717 49.7194 273.315C49.3028 272.913 48.9694 272.433 48.7382 271.903C48.5071 271.372 48.3828 270.801 48.3723 270.222C48.3619 269.643 48.4655 269.068 48.6774 268.529C48.8892 267.991 49.2051 267.499 49.6069 267.082C50.0088 266.666 50.4888 266.332 51.0195 266.101L238.425 184.484C238.955 184.253 239.526 184.129 240.105 184.118C240.684 184.108 241.259 184.212 241.798 184.423C242.337 184.635 242.828 184.951 243.245 185.353C243.662 185.755 243.995 186.235 244.226 186.766C244.457 187.296 244.582 187.867 244.592 188.446C244.603 189.025 244.499 189.6 244.287 190.139C244.075 190.678 243.759 191.169 243.357 191.586C242.956 192.003 242.476 192.336 241.945 192.567H241.945Z" fill="#80B9DB"/>
<path d="M1.19072 531.285L390.916 531.592C391.232 531.592 391.535 531.467 391.758 531.243C391.982 531.02 392.107 530.717 392.107 530.401C392.107 530.086 391.982 529.783 391.758 529.559C391.535 529.336 391.232 529.211 390.916 529.211L1.19072 528.903C0.875528 528.904 0.57355 529.03 0.350998 529.253C0.128446 529.476 0.003479 529.779 0.003479 530.094C0.003479 530.409 0.128446 530.712 0.350998 530.935C0.57355 531.158 0.875528 531.284 1.19072 531.285V531.285Z" fill="#EDF7F5"/>
<path d="M89.2759 64.8153C102.153 64.8153 112.592 54.3764 112.592 41.4994C112.592 28.6225 102.153 18.1836 89.2759 18.1836C76.3989 18.1836 65.96 28.6225 65.96 41.4994C65.96 54.3764 76.3989 64.8153 89.2759 64.8153Z" fill="#FFB8B8"/>
<path d="M79.1262 42.9096C79.084 40.9518 75.8803 40.6397 74.7018 42.2037C73.5232 43.7676 73.8163 45.9504 74.1649 47.8774C75.0006 52.4969 75.8362 57.1163 76.6719 61.7358C77.6632 67.2156 79.0649 73.3294 83.78 76.2923C80.2391 77.8495 76.4072 79.4417 72.6194 78.6571C68.8316 77.8725 65.5898 73.5372 67.4073 70.1226C66.5031 72.7031 65.5436 75.3778 63.2901 77.0955C62.5968 77.6644 61.7682 78.0444 60.8847 78.1985C60.0012 78.3526 59.0929 78.2756 58.2479 77.9751C54.9285 76.6431 56.5354 71.8485 55.0598 68.623C50.8236 59.3625 46.8346 50.4513 53.5515 42.0915C54.5131 40.8947 53.75 38.5818 53.7489 36.4268C53.7428 24.7983 65.6026 14.4893 76.9316 11.867C77.1734 11.8111 77.4055 11.7614 77.6279 11.718C80.7486 11.13 83.9569 11.1914 87.0529 11.8983C90.1488 12.6052 93.0658 13.9425 95.6221 15.8267C98.3736 13.5226 102.827 14.5443 105.308 17.1372C107.789 19.7301 112.44 23.8155 113.063 27.3498C113.687 30.8841 112.338 34.203 114.063 37.3498C110.127 38.1283 103.916 36.8367 100.99 34.0909C99.1038 37.7456 94.2455 38.4233 90.1338 38.5213C86.022 38.6192 81.2311 38.9309 78.9134 42.3286" fill="#2C8BC3"/>
<rect x="141.341" y="229" width="160" height="45" rx="4" transform="rotate(28.3107 141.341 229)" fill="#074268"/>
<path d="M191.873 288.535L190.058 287.557L188.374 290.683L185.258 289.005L186.942 285.879L180.504 282.411L181.699 280.193L193.559 274.016L196.499 275.6L191.392 285.081L193.207 286.059L191.873 288.535ZM188.276 283.403L189.654 280.844C189.784 280.603 189.941 280.32 190.126 279.993C190.317 279.671 190.509 279.348 190.7 279.025C190.892 278.702 191.063 278.417 191.214 278.17C191.376 277.92 191.488 277.745 191.55 277.646L191.467 277.601C191.185 277.813 190.899 278.014 190.61 278.204C190.325 278.388 190.008 278.572 189.66 278.757L184.644 281.446L188.276 283.403ZM205.921 290.405C205.265 291.623 204.583 292.658 203.876 293.51C203.175 294.366 202.435 295.014 201.656 295.456C200.884 295.901 200.067 296.117 199.204 296.104C198.341 296.092 197.428 295.827 196.465 295.308C195.254 294.656 194.425 293.814 193.978 292.784C193.534 291.746 193.438 290.549 193.689 289.194C193.943 287.831 194.506 286.342 195.377 284.725C196.255 283.095 197.174 281.793 198.133 280.819C199.103 279.842 200.14 279.252 201.244 279.048C202.348 278.843 203.543 279.088 204.829 279.781C206.033 280.429 206.856 281.272 207.3 282.31C207.754 283.344 207.858 284.545 207.61 285.911C207.366 287.27 206.803 288.768 205.921 290.405ZM198.544 286.432C197.925 287.58 197.47 288.573 197.179 289.41C196.899 290.244 196.806 290.935 196.901 291.483C196.996 292.031 197.312 292.45 197.848 292.739C198.378 293.024 198.896 293.059 199.403 292.844C199.92 292.626 200.449 292.17 200.991 291.477C201.537 290.777 202.121 289.849 202.743 288.694C203.362 287.545 203.813 286.55 204.098 285.71C204.382 284.869 204.473 284.172 204.371 283.621C204.28 283.065 203.969 282.645 203.439 282.36C202.903 282.071 202.378 282.041 201.864 282.27C201.354 282.492 200.826 282.953 200.28 283.653C199.742 284.357 199.163 285.283 198.544 286.432ZM216.057 301.562L214.241 300.584L212.557 303.71L209.441 302.032L211.125 298.906L204.687 295.438L205.882 293.22L217.742 287.043L220.682 288.627L215.575 298.108L217.391 299.086L216.057 301.562ZM212.459 296.43L213.837 293.871C213.967 293.63 214.124 293.347 214.309 293.02C214.5 292.698 214.692 292.375 214.884 292.052C215.075 291.729 215.246 291.445 215.397 291.197C215.559 290.947 215.671 290.772 215.733 290.673L215.651 290.628C215.368 290.84 215.082 291.041 214.793 291.232C214.508 291.415 214.191 291.599 213.843 291.785L208.827 294.474L212.459 296.43Z" fill="white"/>
<path d="M141.874 240.703C142.138 239.335 142.101 237.926 141.767 236.574C141.432 235.221 140.808 233.957 139.937 232.87C139.066 231.782 137.97 230.897 136.723 230.275C135.477 229.653 134.11 229.309 132.717 229.267L115.238 184.622L101.701 186.421L122.848 239.295C122.953 241.644 123.915 243.873 125.553 245.561C127.191 247.248 129.391 248.276 131.736 248.449C134.081 248.623 136.408 247.93 138.277 246.502C140.145 245.075 141.425 243.011 141.874 240.703V240.703Z" fill="#FFB8B8"/>
<path d="M67.5554 82.3247C67.5554 82.3247 53.7185 100.954 59.1617 111.607C64.6049 122.261 68.0485 132.663 71.627 136.022C75.2055 139.381 85.5516 171.914 89.4866 173.627C93.4216 175.341 89.2569 179.419 94.4806 183.135C99.7044 186.851 101.35 187.207 100.993 188.852C100.637 190.498 110.608 213.171 110.608 213.171L126.856 207.173L92.2569 86.8259L67.5554 82.3247Z" fill="#074268"/>
<rect x="304.187" y="375" width="160" height="45" rx="4" transform="rotate(23.8384 304.187 375)" fill="#074268"/>
<path d="M359.208 430.414L357.321 429.58L355.886 432.828L352.649 431.398L354.084 428.15L347.395 425.194L348.414 422.89L359.756 415.807L362.81 417.157L358.458 427.008L360.344 427.841L359.208 430.414ZM355.221 425.577L356.395 422.919C356.506 422.669 356.64 422.374 356.799 422.034C356.965 421.697 357.131 421.361 357.297 421.024C357.463 420.687 357.611 420.39 357.742 420.132C357.884 419.87 357.982 419.687 358.036 419.583L357.95 419.545C357.685 419.778 357.416 420 357.143 420.213C356.873 420.418 356.571 420.626 356.239 420.838L351.448 423.91L355.221 425.577ZM373.358 431.183C372.799 432.447 372.2 433.532 371.561 434.437C370.929 435.345 370.242 436.05 369.5 436.55C368.765 437.054 367.967 437.333 367.106 437.388C366.244 437.443 365.313 437.25 364.313 436.808C363.055 436.252 362.163 435.478 361.637 434.485C361.113 433.485 360.924 432.299 361.069 430.928C361.216 429.55 361.661 428.022 362.403 426.342C363.152 424.649 363.966 423.279 364.847 422.233C365.738 421.183 366.725 420.514 367.81 420.224C368.894 419.935 370.105 420.085 371.441 420.676C372.692 421.228 373.579 422.004 374.102 423.004C374.635 424 374.832 425.189 374.691 426.57C374.554 427.944 374.11 429.482 373.358 431.183ZM365.694 427.796C365.167 428.99 364.791 430.015 364.565 430.872C364.351 431.725 364.312 432.421 364.45 432.961C364.587 433.5 364.935 433.892 365.492 434.139C366.043 434.382 366.562 434.376 367.05 434.122C367.548 433.864 368.041 433.368 368.527 432.635C369.016 431.895 369.526 430.924 370.057 429.724C370.584 428.53 370.956 427.504 371.174 426.643C371.392 425.783 371.429 425.082 371.284 424.539C371.15 423.993 370.807 423.598 370.257 423.355C369.7 423.109 369.174 423.12 368.679 423.388C368.188 423.65 367.698 424.151 367.208 424.891C366.726 425.634 366.221 426.603 365.694 427.796ZM385.921 436.733C385.362 437.998 384.763 439.083 384.124 439.988C383.492 440.896 382.805 441.6 382.063 442.101C381.328 442.605 380.53 442.884 379.668 442.939C378.807 442.994 377.876 442.801 376.876 442.359C375.618 441.803 374.726 441.029 374.199 440.036C373.676 439.036 373.487 437.85 373.631 436.479C373.779 435.101 374.224 433.572 374.966 431.893C375.714 430.199 376.529 428.83 377.409 427.784C378.3 426.734 379.288 426.064 380.372 425.775C381.457 425.485 382.667 425.636 384.004 426.226C385.254 426.779 386.141 427.555 386.665 428.555C387.198 429.551 387.395 430.74 387.254 432.121C387.117 433.495 386.672 435.033 385.921 436.733ZM378.257 433.347C377.729 434.54 377.353 435.566 377.128 436.423C376.913 437.276 376.875 437.972 377.013 438.511C377.15 439.051 377.498 439.443 378.055 439.689C378.605 439.933 379.124 439.927 379.612 439.673C380.111 439.415 380.603 438.919 381.089 438.186C381.579 437.446 382.089 436.475 382.619 435.275C383.147 434.081 383.519 433.054 383.737 432.194C383.955 431.334 383.991 430.632 383.847 430.09C383.712 429.544 383.37 429.149 382.82 428.906C382.262 428.66 381.736 428.671 381.242 428.939C380.751 429.201 380.26 429.701 379.771 430.442C379.289 431.185 378.784 432.154 378.257 433.347Z" fill="white"/>
</g>
<defs>
<clipPath id="clip0_595_124">
<rect width="691.315" height="531.592" fill="white"/>
</clipPath>
</defs>
</svg>
