<svg viewBox="0 0 664 400" fill="none" xmlns="http://www.w3.org/2000/svg">
<g clip-path="url(#clip0_148_1214)">
<path d="M508.374 395.477C499.873 388.239 494.709 376.805 496.064 365.674C497.418 354.543 505.805 344.311 516.684 341.947C527.564 339.583 539.966 346.126 543.27 356.835C545.089 336.189 547.184 314.679 558.078 297.097C567.942 281.177 585.026 269.786 603.542 267.748C622.058 265.71 641.552 273.407 653.1 288.133C664.647 302.858 667.475 324.266 659.387 341.172C653.429 353.626 642.453 362.894 630.952 370.434C593.79 394.595 549.218 404.42 505.438 398.102L508.374 395.477Z" fill="#2C8BC3"/>
<path d="M634.79 273.834C619.512 286.372 605.497 300.396 592.946 315.701C573.303 339.572 557.409 366.336 545.815 395.06C544.967 397.156 548.344 398.068 549.183 395.996C568.152 349.313 598.434 308.167 637.259 276.322C639.003 274.891 636.519 272.415 634.79 273.834Z" fill="white"/>
<path d="M213.752 393.51C225.428 383.569 232.521 367.865 230.661 352.576C228.801 337.288 217.281 323.233 202.338 319.987C187.395 316.74 170.361 325.727 165.822 340.435C163.325 312.079 160.446 282.534 145.484 258.386C131.936 236.52 108.47 220.874 83.0391 218.075C57.6078 215.276 30.8319 225.848 14.9713 246.073C-0.889222 266.298 -4.77261 295.702 6.33571 318.922C14.5188 336.028 29.595 348.758 45.3911 359.115C95.7861 392.156 158.301 405.936 217.785 397.116" fill="#2C8BC3"/>
<path d="M40.1199 226.434C61.1039 243.655 80.3544 262.917 97.5932 283.939C114.835 304.939 130.014 327.575 142.918 351.529C150.13 364.966 156.61 378.789 162.327 392.938C163.492 395.816 158.854 397.069 157.701 394.223C147.575 369.279 135.047 345.395 120.297 322.914C105.618 300.513 88.8177 279.601 70.1314 260.47C59.5623 249.654 48.4111 239.433 36.7282 229.851C34.3335 227.886 37.745 224.485 40.1199 226.434L40.1199 226.434Z" fill="white"/>
<path d="M476.63 399.124H198.055V111.124C198.055 49.85 247.529 0 308.34 0H366.345C427.156 0 476.63 49.85 476.63 111.124V399.124Z" fill="#09578B"/>
<path d="M418.625 399.124H198.055V111.124C197.994 87.6454 205.373 64.7599 219.117 45.7998C219.623 45.104 220.129 44.4172 220.65 43.738C227.298 34.9526 235.209 27.2156 244.122 20.7821C244.625 20.413 245.131 20.0502 245.644 19.6875C253.102 14.4869 261.17 10.2355 269.664 7.03012C270.169 6.83748 270.682 6.64447 271.196 6.45934C278.878 3.69706 286.841 1.80491 294.938 0.817828C295.44 0.748731 295.955 0.694662 296.471 0.640592C304.362 -0.209543 312.32 -0.209543 320.211 0.640592C320.725 0.694662 321.24 0.748725 321.748 0.818568C329.844 1.80571 337.805 3.69763 345.485 6.45938C345.998 6.64451 346.512 6.8375 347.018 7.03051C355.407 10.1955 363.38 14.3834 370.759 19.5009C371.271 19.8558 371.785 20.2185 372.29 20.5812C377.286 24.1747 381.979 28.178 386.321 32.5503C389.803 36.0574 393.047 39.7958 396.032 43.7403C396.552 44.4173 397.057 45.1041 397.563 45.7988C411.307 64.759 418.686 87.6449 418.625 111.124V399.124Z" fill="#2C8BC3"/>
<path d="M400.69 270.313C407.434 270.313 412.901 264.804 412.901 258.008C412.901 251.213 407.434 245.704 400.69 245.704C393.945 245.704 388.478 251.213 388.478 258.008C388.478 264.804 393.945 270.313 400.69 270.313Z" fill="#074268"/>
<path d="M453.809 390.498H444.452L440 354.133L453.81 354.133L453.809 390.498Z" fill="#FFB8B8"/>
<path d="M437.768 387.804H455.814V399.253H426.406C426.406 397.749 426.7 396.26 427.271 394.871C427.842 393.482 428.679 392.22 429.734 391.157C430.789 390.094 432.042 389.251 433.42 388.676C434.799 388.1 436.276 387.804 437.768 387.804Z" fill="#0A6497"/>
<path d="M500.365 390.498H491.008L486.556 354.133L500.367 354.133L500.365 390.498Z" fill="#FFB8B8"/>
<path d="M484.324 387.804H502.37V399.253H472.962C472.962 397.749 473.256 396.26 473.827 394.871C474.398 393.482 475.235 392.22 476.29 391.157C477.345 390.094 478.598 389.251 479.976 388.676C481.355 388.1 482.832 387.804 484.324 387.804Z" fill="#0A6497"/>
<path d="M406.87 260.446C406.197 259.446 405.749 258.31 405.559 257.118C405.369 255.926 405.44 254.706 405.768 253.544C406.096 252.382 406.673 251.307 407.458 250.395C408.244 249.482 409.218 248.754 410.312 248.262L442.12 159.927L457.772 168.533L421.454 252.949C422.153 254.857 422.133 256.957 421.398 258.851C420.663 260.744 419.264 262.301 417.466 263.225C415.669 264.149 413.597 264.376 411.644 263.864C409.691 263.352 407.992 262.136 406.87 260.446Z" fill="#FFB8B8"/>
<path d="M495.585 277.044C494.546 276.444 493.649 275.62 492.959 274.633C492.269 273.645 491.802 272.517 491.592 271.328C491.381 270.139 491.432 268.918 491.741 267.751C492.049 266.584 492.608 265.499 493.377 264.573L483.524 171.129L501.335 171.949L505.431 263.864C506.889 265.269 507.785 267.165 507.948 269.192C508.112 271.219 507.532 273.236 506.318 274.86C505.105 276.485 503.342 277.605 501.364 278.007C499.386 278.41 497.33 278.067 495.585 277.044Z" fill="#FFB8B8"/>
<path d="M467.17 143.564C477.523 143.564 485.916 135.108 485.916 124.676C485.916 114.245 477.523 105.788 467.17 105.788C456.818 105.788 448.425 114.245 448.425 124.676C448.425 135.108 456.818 143.564 467.17 143.564Z" fill="#FFB8B8"/>
<path d="M495.466 255.792H438.952L439.02 255.349C439.121 254.687 449.092 188.875 441.738 167.345C441 165.229 441.065 162.913 441.921 160.843C442.776 158.772 444.361 157.094 446.371 156.13C456.881 151.143 477.058 145.001 494.087 159.905C496.593 162.134 498.55 164.921 499.803 168.043C501.056 171.166 501.571 174.54 501.307 177.897L495.466 255.792Z" fill="#073B5E"/>
<path d="M449.806 198.601L424.363 193.4L436.289 164.923C437.003 162.165 438.773 159.805 441.212 158.36C443.65 156.915 446.558 156.504 449.297 157.217C452.036 157.929 454.383 159.707 455.822 162.161C457.262 164.614 457.677 167.543 456.977 170.305L449.806 198.601Z" fill="#074268"/>
<path d="M482.392 208.258L480.863 172.928C479.703 166.287 483.476 160.008 489.279 158.982C495.084 157.96 500.752 162.566 501.917 169.256L507.666 202.269L482.392 208.258Z" fill="#073B5E"/>
<path d="M493.586 251.563C502.679 286.459 503.671 330.826 501.218 379.221L489.006 377.683L466.873 285.4L454.661 379.221L440.924 378.452C436.819 327.673 432.823 284.081 439.397 255.408L493.586 251.563Z" fill="#0A6497"/>
<path d="M479.522 139.274C476.025 143.027 469.53 141.012 469.075 135.884C469.039 135.486 469.041 135.086 469.082 134.688C469.318 132.417 470.62 130.355 470.308 127.956C470.237 127.359 470.017 126.791 469.667 126.304C466.88 122.544 460.338 127.985 457.708 124.582C456.096 122.495 457.991 119.208 456.754 116.876C455.121 113.797 450.283 115.316 447.249 113.629C443.873 111.753 444.075 106.535 446.297 103.361C449.007 99.4899 453.758 97.4244 458.45 97.1267C463.142 96.829 467.802 98.107 472.182 99.8271C477.159 101.781 482.095 104.482 485.158 108.892C488.882 114.255 489.241 121.464 487.378 127.734C486.245 131.549 482.377 136.209 479.522 139.274Z" fill="#074268"/>
<path d="M357.949 315.685H258.731C257.424 315.692 256.168 315.177 255.238 314.252C254.308 313.327 253.78 312.068 253.77 310.752V87.6038C253.78 86.2872 254.308 85.0283 255.238 84.1035C256.168 83.1786 257.424 82.6632 258.731 82.6702H357.949C359.256 82.6632 360.512 83.1786 361.442 84.1035C362.372 85.0283 362.9 86.2872 362.91 87.6038V310.752C362.9 312.068 362.372 313.327 361.442 314.252C360.512 315.177 359.256 315.692 357.949 315.685Z" fill="white"/>
<path d="M362.91 154.874H253.77V156.412H362.91V154.874Z" fill="#EDF7F5"/>
<path d="M363.292 242.628H254.152V244.166H363.292V242.628Z" fill="#EDF7F5"/>
<path d="M289.641 82.6703H288.115V316.454H289.641V82.6703Z" fill="#EDF7F5"/>
<path d="M327.802 82.6703H326.276V316.454H327.802V82.6703Z" fill="#EDF7F5"/>
</g>
<defs>
<clipPath id="clip0_148_1214">
<rect width="664" height="400" fill="white"/>
</clipPath>
</defs>
</svg>
