<svg viewBox="0 0 1920 228" fill="none" xmlns="http://www.w3.org/2000/svg">
<path d="M-9.64438e-07 228L-1.42121e-07 33.5985C119.566 14.682 239.132 -4.2346 352 0.834199C464.868 5.903 571.037 34.9572 722.667 46.7042C874.297 58.4513 1071.39 52.8913 1201.33 44.5199C1331.28 36.1486 1394.08 24.9659 1502.67 22.6771C1611.25 20.3883 1765.63 26.9934 1920 33.5985L1920 228L-9.64438e-07 228Z" fill="#EDF7F5"/>
<path d="M-7.33544e-07 228L-2.25435e-07 107.88C89.8628 89.8996 179.726 71.9197 322.667 85.469C465.608 99.0182 661.627 144.097 805.333 140.151C949.04 136.205 1040.43 83.2344 1146.67 63.9549C1252.9 44.6754 1373.97 59.0867 1505.33 72.0227C1636.7 84.9586 1778.35 96.4191 1920 107.88L1920 228L-7.33544e-07 228Z" fill="#074268"/>
</svg>
