<svg width="752" height="732" viewBox="0 0 752 732" fill="none" xmlns="http://www.w3.org/2000/svg">
<path d="M299.925 75.4556C467.925 71.9556 361.782 -61.0651 557.925 34.4556C624.281 66.7709 650.344 93.9944 662.824 135.956C680.336 194.838 584.925 343.455 708.925 454.455C832.925 565.455 658.294 612.685 541.425 592.206C471.524 579.956 367.925 645.354 307.425 519.155C246.925 392.956 98.802 429.156 34.9247 404.955C-62.5519 368.025 70.9249 265.093 109.425 200.524C147.925 135.956 131.925 78.9557 299.925 75.4556Z" fill="#C0DCED"/>
<path d="M564.475 81.9139C550.223 70.343 529.299 72.5153 517.726 86.7661C516.772 87.9412 515.91 89.1658 515.142 90.4227C514.085 88.9663 512.827 87.6163 511.364 86.428C502.331 79.0942 489.063 80.4715 481.73 89.5042C479.614 92.1094 478.231 95.0667 477.54 98.1326C465.278 94.2292 451.573 97.7082 443.224 107.991C432.224 121.54 434.688 141.765 448.731 153.168C459.515 161.924 473.994 162.933 485.114 156.792C486.938 162.761 490.461 168.281 495.631 172.556C506.352 181.42 521.004 182.363 532.506 176.072C533.689 177.744 535.112 179.285 536.78 180.639C546.616 188.625 561.071 187.124 569.056 177.288C574.047 171.141 575.327 163.188 573.188 156.142C574.039 155.387 574.848 154.558 575.588 153.646C582.921 144.614 581.544 131.346 572.511 124.013C572.509 124.011 572.507 124.009 572.505 124.007C580.314 110.15 577.236 92.276 564.473 81.9126L564.475 81.9139Z" fill="#2C8BC3"/>
<path d="M554 451H173C172.735 451 172.48 450.895 172.293 450.707C172.105 450.52 172 450.265 172 450C172 449.735 172.105 449.48 172.293 449.293C172.48 449.105 172.735 449 173 449H554C554.265 449 554.52 449.105 554.707 449.293C554.895 449.48 555 449.735 555 450C555 450.265 554.895 450.52 554.707 450.707C554.52 450.895 554.265 451 554 451Z" fill="black"/>
<path d="M371.059 320C385.971 320 398.059 307.912 398.059 293C398.059 278.088 385.971 266 371.059 266C356.147 266 344.059 278.088 344.059 293C344.059 307.912 356.147 320 371.059 320Z" fill="#0A6497"/>
<path d="M345.405 466.326L344.69 454.088L391.556 445.503L392.612 463.567L345.405 466.326Z" fill="#FFB8B8"/>
<path d="M347.675 445.141L349.055 468.745L334.194 469.614L331.945 431.149C333.897 431.034 335.852 431.306 337.699 431.947C339.545 432.589 341.248 433.588 342.708 434.887C344.169 436.186 345.359 437.761 346.212 439.52C347.064 441.28 347.561 443.19 347.675 445.141Z" fill="#0A6497"/>
<path d="M365.789 466.214L358.004 475.685L317.768 450.166L329.257 436.188L365.789 466.214Z" fill="#FFB8B8"/>
<path d="M349.737 480.226L364.751 461.96L376.251 471.413L351.785 501.179C350.275 499.938 349.024 498.411 348.104 496.686C347.184 494.962 346.612 493.072 346.422 491.127C346.232 489.181 346.427 487.217 346.995 485.347C347.564 483.476 348.496 481.736 349.737 480.226Z" fill="#0A6497"/>
<path d="M343.387 422.17L338.067 447.249C337.945 447.826 337.951 448.424 338.087 448.998C338.223 449.573 338.484 450.11 338.852 450.572C339.22 451.033 339.685 451.408 340.215 451.668C340.744 451.929 341.325 452.069 341.915 452.078L394.213 452.922C394.803 452.931 395.387 452.81 395.924 452.568C396.462 452.325 396.939 451.967 397.321 451.518C397.704 451.069 397.983 450.542 398.137 449.973C398.292 449.404 398.319 448.808 398.217 448.227L393.642 422.305C393.479 421.379 392.995 420.54 392.274 419.936C391.554 419.331 390.644 419 389.703 419H347.3C346.383 419 345.494 419.315 344.782 419.892C344.07 420.469 343.577 421.273 343.387 422.17Z" fill="#0A6497"/>
<path d="M352.059 431C352.059 431 301.059 399 291.059 416C286.059 424.5 288.559 432.75 292.309 438.875C295.789 444.452 300.784 448.923 306.711 451.766L348.059 472L363.059 456L353.059 447L352.059 431Z" fill="#0A6497"/>
<path d="M378.059 426C378.059 426 444.059 407 431.059 443C418.059 479 369.059 465 369.059 465L364.059 450L381.059 438L378.059 426Z" fill="#0A6497"/>
<path d="M371.398 323.727C384.963 323.727 395.959 312.73 395.959 299.166C395.959 285.601 384.963 274.604 371.398 274.604C357.833 274.604 346.837 285.601 346.837 299.166C346.837 312.73 357.833 323.727 371.398 323.727Z" fill="#FFB8B8"/>
<path d="M372.685 429.969C362.479 429.814 352.325 428.477 342.428 425.982L342.135 425.902L328.43 362.857C327.197 357.318 328.035 351.518 330.786 346.554C333.538 341.59 338.011 337.805 343.363 335.914C359.892 329.983 377.909 329.624 394.662 334.89H394.662C400.284 336.701 405.016 340.566 407.914 345.712C410.812 350.858 411.663 356.908 410.297 362.654L394.989 425.85L394.773 425.952C388.412 428.966 380.456 429.969 372.685 429.969Z" fill="#2C8BC3"/>
<path d="M354.274 434.866C354.772 433.483 355.567 432.226 356.603 431.183C357.639 430.14 358.892 429.337 360.272 428.831C361.652 428.324 363.126 428.126 364.591 428.251C366.056 428.376 367.475 428.821 368.75 429.554L395.736 406.129L398.178 424.538L372.177 443.96C370.803 446.019 368.723 447.503 366.328 448.131C363.934 448.758 361.393 448.486 359.186 447.365C356.98 446.244 355.261 444.352 354.355 442.049C353.45 439.745 353.421 437.19 354.274 434.866Z" fill="#FFB8B8"/>
<path d="M380.012 439.976C379.573 439.975 379.136 439.911 378.716 439.785C378.033 439.586 377.408 439.227 376.892 438.737C376.377 438.247 375.986 437.641 375.753 436.969L372.496 427.74C372.191 426.887 372.152 425.962 372.385 425.087C372.617 424.211 373.11 423.427 373.798 422.838L410.567 400.764L396.073 336.103L396.441 336.014C396.591 335.977 411.442 332.597 417.527 348.824C421.789 360.189 437.559 384.901 436.446 401.601C436.235 404.941 434.904 408.112 432.668 410.603C430.432 413.094 427.422 414.759 424.124 415.328L382.736 439.041C381.956 439.645 380.998 439.974 380.012 439.976Z" fill="#2C8BC3"/>
<path d="M384.136 432.673C383.638 431.29 382.843 430.032 381.807 428.989C380.771 427.947 379.519 427.144 378.138 426.637C376.758 426.131 375.284 425.933 373.819 426.058C372.354 426.183 370.935 426.628 369.661 427.361L342.674 403.936L340.232 422.345L366.234 441.767C367.607 443.826 369.688 445.31 372.082 445.937C374.476 446.565 377.017 446.292 379.224 445.171C381.431 444.05 383.15 442.159 384.055 439.855C384.96 437.552 384.989 434.996 384.136 432.673Z" fill="#FFB8B8"/>
<path d="M361.106 439.975C360.12 439.974 359.162 439.645 358.382 439.041L313.994 417.328C310.696 416.758 307.686 415.094 305.45 412.603C303.214 410.112 301.883 406.941 301.672 403.6C300.559 386.901 319.329 360.189 323.591 348.824C329.676 332.597 344.526 335.976 344.677 336.014L345.045 336.102L327.551 402.764L367.32 422.838C368.008 423.427 368.501 424.211 368.733 425.087C368.966 425.962 368.927 426.887 368.622 427.74L365.365 436.969C365.132 437.641 364.741 438.247 364.226 438.737C363.711 439.227 363.085 439.586 362.402 439.785C361.982 439.911 361.545 439.975 361.106 439.975Z" fill="#2C8BC3"/>
<path d="M414.059 450H325.059C323.203 449.998 321.424 449.26 320.112 447.947C318.799 446.635 318.061 444.856 318.059 443V394C318.061 392.144 318.799 390.365 320.112 389.053C321.424 387.74 323.203 387.002 325.059 387H414.059C415.915 387.002 417.694 387.74 419.006 389.053C420.319 390.365 421.057 392.144 421.059 394V443C421.057 444.856 420.319 446.635 419.006 447.947C417.694 449.26 415.915 449.998 414.059 450Z" fill="#074268"/>
<path d="M369.559 424.5C372.873 424.5 375.559 421.814 375.559 418.5C375.559 415.186 372.873 412.5 369.559 412.5C366.245 412.5 363.559 415.186 363.559 418.5C363.559 421.814 366.245 424.5 369.559 424.5Z" fill="white"/>
<path d="M346.591 298.166C345.135 294.473 347.523 290.073 351.066 288.285C354.609 286.496 358.885 286.836 362.674 288.015C365.859 289.006 368.844 290.541 371.951 291.754C375.015 293.111 378.361 293.707 381.704 293.49C385.018 293.116 388.317 291.258 389.673 288.21C391.079 285.052 390.123 281.197 387.958 278.502C385.655 275.896 382.674 273.98 379.346 272.967C372.039 270.392 363.598 270.317 356.814 274.059C350.03 277.802 345.42 285.77 346.822 293.389" fill="#0A6497"/>
<path d="M204.663 439.319C205.898 426.013 209.31 413.001 214.763 400.801C216.283 397.406 217.956 394.086 219.781 390.841C219.873 390.671 219.895 390.472 219.843 390.287C219.791 390.101 219.668 389.943 219.502 389.845C219.335 389.748 219.138 389.719 218.95 389.765C218.763 389.811 218.601 389.927 218.498 390.09C211.858 401.911 207.207 414.743 204.73 428.073C204.041 431.795 203.523 435.544 203.176 439.319C203.088 440.271 204.575 440.265 204.663 439.319Z" fill="black"/>
<path d="M223.381 393.224C228.581 393.224 232.796 389.009 232.796 383.81C232.796 378.61 228.581 374.396 223.381 374.396C218.182 374.396 213.967 378.61 213.967 383.81C213.967 389.009 218.182 393.224 223.381 393.224Z" fill="#2C8BC3"/>
<path d="M205.625 439.569C206.427 430.937 208.641 422.495 212.178 414.581C213.164 412.378 214.249 410.224 215.434 408.119C215.493 408.009 215.507 407.88 215.474 407.759C215.44 407.639 215.36 407.536 215.252 407.473C215.144 407.41 215.016 407.391 214.895 407.421C214.773 407.451 214.668 407.526 214.601 407.632C210.294 415.301 207.276 423.625 205.669 432.273C205.222 434.688 204.886 437.12 204.661 439.569C204.604 440.186 205.569 440.183 205.625 439.569H205.625Z" fill="black"/>
<path d="M217.77 409.665C221.143 409.665 223.877 406.931 223.877 403.558C223.877 400.185 221.143 397.45 217.77 397.45C214.397 397.45 211.662 400.185 211.662 403.558C211.662 406.931 214.397 409.665 217.77 409.665Z" fill="#2C8BC3"/>
<path d="M204.408 438.992C199.731 431.693 196.284 423.675 194.206 415.259C193.629 412.916 193.159 410.551 192.798 408.162C192.777 408.039 192.709 407.928 192.609 407.854C192.508 407.78 192.382 407.747 192.258 407.764C192.134 407.781 192.021 407.845 191.944 407.943C191.866 408.041 191.83 408.166 191.842 408.29C193.163 416.986 195.904 425.406 199.955 433.213C201.088 435.392 202.319 437.516 203.648 439.585C203.983 440.107 204.741 439.511 204.408 438.992Z" fill="black"/>
<path d="M191.835 409.237C195.208 409.237 197.942 406.502 197.942 403.129C197.942 399.756 195.208 397.021 191.835 397.021C188.461 397.021 185.727 399.756 185.727 403.129C185.727 406.502 188.461 409.237 191.835 409.237Z" fill="#2C8BC3"/>
<path d="M185.659 444.396V432.396C185.66 431.202 186.135 430.059 186.978 429.215C187.822 428.371 188.966 427.897 190.159 427.896H218.159C219.352 427.897 220.496 428.371 221.339 429.215C222.183 430.059 222.657 431.202 222.659 432.396V444.396C222.657 445.589 222.183 446.732 221.339 447.576C220.496 448.42 219.352 448.894 218.159 448.896H190.159C188.966 448.894 187.822 448.42 186.978 447.576C186.135 446.732 185.66 445.589 185.659 444.396Z" fill="#0A6497"/>
<path d="M486.409 458.4C486.409 464.978 481.077 467.967 474.5 467.967C467.923 467.967 462.591 464.978 462.591 458.4C462.591 451.823 465.237 444.149 474.5 446.796C483.762 442.826 486.409 451.823 486.409 458.4Z" fill="#0A6497"/>
<path d="M473.92 449.877C473.457 449.878 473.009 449.71 472.661 449.404C472.313 449.099 472.088 448.677 472.029 448.218C471.634 444.937 469.461 438.51 468.545 435.899L468.545 435.899C468.452 435.639 468.424 435.361 468.462 435.088C468.5 434.815 468.604 434.556 468.765 434.332C468.918 434.132 469.113 433.967 469.335 433.847C469.557 433.727 469.802 433.656 470.053 433.638C470.305 433.62 470.558 433.655 470.795 433.742C471.032 433.828 471.247 433.964 471.428 434.14C471.59 434.309 471.715 434.51 471.795 434.729C471.876 434.949 471.91 435.183 471.896 435.416C471.717 438.767 474.159 444.181 475.631 447.11C475.77 447.387 475.84 447.692 475.835 448.001C475.829 448.311 475.749 448.614 475.6 448.885C475.452 449.156 475.24 449.387 474.982 449.558C474.724 449.729 474.429 449.835 474.122 449.866C474.055 449.874 473.987 449.877 473.92 449.877Z" fill="black"/>
<path d="M482.732 442.486C486.866 439.102 483.622 432.178 478.448 433.507C477.752 433.673 477.11 434.016 476.585 434.501C473.411 437.499 472.919 445.17 472.919 445.17C472.919 445.17 478.523 445.93 482.732 442.486Z" fill="black"/>
<path d="M203.083 533.384C167.034 534.711 149.202 578.921 233.57 608.354C317.938 637.787 265.566 675.521 295 694.5C331.793 718.223 372.572 716.079 364.656 667.61C356.74 619.141 239.131 532.057 203.083 533.384Z" fill="#C0DCED"/>
</svg>
