<svg viewBox="0 0 885 613" fill="none" xmlns="http://www.w3.org/2000/svg">
  <g clip-path="url(#a)">
    <path d="M201.011 15.9298c4.328 0 7.837-3.566 7.837-7.96492C208.848 3.566 205.339 0 201.011 0c-4.328 0-7.837 3.566-7.837 7.96488 0 4.39892 3.509 7.96492 7.837 7.96492Zm39.67 0c4.328 0 7.837-3.566 7.837-7.96492C248.518 3.566 245.009 0 240.681 0c-4.328 0-7.837 3.566-7.837 7.96488 0 4.39892 3.509 7.96492 7.837 7.96492Zm39.67 0c4.329 0 7.837-3.566 7.837-7.96492C288.188 3.566 284.68 0 280.351 0c-4.328 0-7.836 3.566-7.836 7.96488 0 4.39892 3.508 7.96492 7.836 7.96492Zm39.671 0c4.328 0 7.837-3.566 7.837-7.96492C327.859 3.566 324.35 0 320.022 0c-4.328 0-7.837 3.566-7.837 7.96488 0 4.39892 3.509 7.96492 7.837 7.96492Zm39.67 0c4.328 0 7.837-3.566 7.837-7.96492C367.529 3.566 364.02 0 359.692 0c-4.328 0-7.837 3.566-7.837 7.96488 0 4.39892 3.509 7.96492 7.837 7.96492ZM201.011 56.7539c4.328 0 7.837-3.566 7.837-7.9649 0-4.3988-3.509-7.9648-7.837-7.9648-4.328 0-7.837 3.566-7.837 7.9648 0 4.3989 3.509 7.9649 7.837 7.9649Zm39.67 0c4.328 0 7.837-3.566 7.837-7.9649 0-4.3988-3.509-7.9648-7.837-7.9648-4.328 0-7.837 3.566-7.837 7.9648 0 4.3989 3.509 7.9649 7.837 7.9649Zm39.67 0c4.329 0 7.837-3.566 7.837-7.9649 0-4.3988-3.508-7.9648-7.837-7.9648-4.328 0-7.836 3.566-7.836 7.9648 0 4.3989 3.508 7.9649 7.836 7.9649Z" fill="#E6E6E6"/>
    <path d="M320.022 56.7539c4.328 0 7.837-3.566 7.837-7.9649 0-4.3988-3.509-7.9648-7.837-7.9648-4.328 0-7.837 3.566-7.837 7.9648 0 4.3989 3.509 7.9649 7.837 7.9649Z" fill="#074268"/>
    <path d="M359.692 56.7539c4.328 0 7.837-3.566 7.837-7.9649 0-4.3988-3.509-7.9648-7.837-7.9648-4.328 0-7.837 3.566-7.837 7.9648 0 4.3989 3.509 7.9649 7.837 7.9649Zm79.341 0c4.328 0 7.837-3.566 7.837-7.9649 0-4.3988-3.509-7.9648-7.837-7.9648-4.328 0-7.837 3.566-7.837 7.9648 0 4.3989 3.509 7.9649 7.837 7.9649ZM201.011 97.5781c4.328 0 7.837-3.566 7.837-7.9649s-3.509-7.9649-7.837-7.9649c-4.328 0-7.837 3.566-7.837 7.9649s3.509 7.9649 7.837 7.9649Zm39.67 0c4.328 0 7.837-3.566 7.837-7.9649s-3.509-7.9649-7.837-7.9649c-4.328 0-7.837 3.566-7.837 7.9649s3.509 7.9649 7.837 7.9649Zm39.67 0c4.329 0 7.837-3.566 7.837-7.9649s-3.508-7.9649-7.837-7.9649c-4.328 0-7.836 3.566-7.836 7.9649s3.508 7.9649 7.836 7.9649Zm39.671 0c4.328 0 7.837-3.566 7.837-7.9649s-3.509-7.9649-7.837-7.9649c-4.328 0-7.837 3.566-7.837 7.9649s3.509 7.9649 7.837 7.9649Zm39.67 0c4.328 0 7.837-3.566 7.837-7.9649s-3.509-7.9649-7.837-7.9649c-4.328 0-7.837 3.566-7.837 7.9649s3.509 7.9649 7.837 7.9649ZM201.011 138.402c4.328 0 7.837-3.566 7.837-7.965s-3.509-7.965-7.837-7.965c-4.328 0-7.837 3.566-7.837 7.965s3.509 7.965 7.837 7.965Zm39.67 0c4.328 0 7.837-3.566 7.837-7.965s-3.509-7.965-7.837-7.965c-4.328 0-7.837 3.566-7.837 7.965s3.509 7.965 7.837 7.965Zm39.67 0c4.329 0 7.837-3.566 7.837-7.965s-3.508-7.965-7.837-7.965c-4.328 0-7.836 3.566-7.836 7.965s3.508 7.965 7.836 7.965Zm39.671 0c4.328 0 7.837-3.566 7.837-7.965s-3.509-7.965-7.837-7.965c-4.328 0-7.837 3.566-7.837 7.965s3.509 7.965 7.837 7.965Zm39.67 0c4.328 0 7.837-3.566 7.837-7.965s-3.509-7.965-7.837-7.965c-4.328 0-7.837 3.566-7.837 7.965s3.509 7.965 7.837 7.965Zm39.67 0c4.329 0 7.837-3.566 7.837-7.965s-3.508-7.965-7.837-7.965c-4.328 0-7.836 3.566-7.836 7.965s3.508 7.965 7.836 7.965Zm39.671 0c4.328 0 7.837-3.566 7.837-7.965s-3.509-7.965-7.837-7.965c-4.328 0-7.837 3.566-7.837 7.965s3.509 7.965 7.837 7.965Zm39.67 0c4.328 0 7.837-3.566 7.837-7.965s-3.509-7.965-7.837-7.965c-4.328 0-7.837 3.566-7.837 7.965s3.509 7.965 7.837 7.965Zm39.67 0c4.329 0 7.837-3.566 7.837-7.965s-3.508-7.965-7.837-7.965c-4.328 0-7.837 3.566-7.837 7.965s3.509 7.965 7.837 7.965Zm39.671 0c4.328 0 7.837-3.566 7.837-7.965s-3.509-7.965-7.837-7.965c-4.329 0-7.837 3.566-7.837 7.965s3.508 7.965 7.837 7.965Zm-198.352 40.824c4.328 0 7.837-3.566 7.837-7.965 0-4.398-3.509-7.964-7.837-7.964-4.328 0-7.837 3.566-7.837 7.964 0 4.399 3.509 7.965 7.837 7.965Z" fill="#E6E6E6"/>
    <path d="M399.362 179.226c4.329 0 7.837-3.566 7.837-7.965 0-4.398-3.508-7.964-7.837-7.964-4.328 0-7.836 3.566-7.836 7.964 0 4.399 3.508 7.965 7.836 7.965Z" fill="#074268"/>
    <path d="M439.033 179.226c4.328 0 7.837-3.566 7.837-7.965 0-4.398-3.509-7.964-7.837-7.964-4.328 0-7.837 3.566-7.837 7.964 0 4.399 3.509 7.965 7.837 7.965Zm39.67 0c4.328 0 7.837-3.566 7.837-7.965 0-4.398-3.509-7.964-7.837-7.964-4.328 0-7.837 3.566-7.837 7.964 0 4.399 3.509 7.965 7.837 7.965Zm39.67 0c4.329 0 7.837-3.566 7.837-7.965 0-4.398-3.508-7.964-7.837-7.964-4.328 0-7.837 3.566-7.837 7.964 0 4.399 3.509 7.965 7.837 7.965Zm39.671 0c4.328 0 7.837-3.566 7.837-7.965 0-4.398-3.509-7.964-7.837-7.964-4.329 0-7.837 3.566-7.837 7.964 0 4.399 3.508 7.965 7.837 7.965Zm-198.352 40.825c4.328 0 7.837-3.567 7.837-7.965 0-4.399-3.509-7.965-7.837-7.965-4.328 0-7.837 3.566-7.837 7.965 0 4.398 3.509 7.965 7.837 7.965Zm39.67 0c4.329 0 7.837-3.567 7.837-7.965 0-4.399-3.508-7.965-7.837-7.965-4.328 0-7.836 3.566-7.836 7.965 0 4.398 3.508 7.965 7.836 7.965Zm39.671 0c4.328 0 7.837-3.567 7.837-7.965 0-4.399-3.509-7.965-7.837-7.965-4.328 0-7.837 3.566-7.837 7.965 0 4.398 3.509 7.965 7.837 7.965Zm39.67 0c4.328 0 7.837-3.567 7.837-7.965 0-4.399-3.509-7.965-7.837-7.965-4.328 0-7.837 3.566-7.837 7.965 0 4.398 3.509 7.965 7.837 7.965Z" fill="#E6E6E6"/>
    <path d="M518.373 220.051c4.329 0 7.837-3.567 7.837-7.965 0-4.399-3.508-7.965-7.837-7.965-4.328 0-7.837 3.566-7.837 7.965 0 4.398 3.509 7.965 7.837 7.965Z" fill="#074268"/>
    <path d="M558.044 220.051c4.328 0 7.837-3.567 7.837-7.965 0-4.399-3.509-7.965-7.837-7.965-4.329 0-7.837 3.566-7.837 7.965 0 4.398 3.508 7.965 7.837 7.965Zm-198.352 40.824c4.328 0 7.837-3.566 7.837-7.965s-3.509-7.965-7.837-7.965c-4.328 0-7.837 3.566-7.837 7.965s3.509 7.965 7.837 7.965Zm39.67 0c4.329 0 7.837-3.566 7.837-7.965s-3.508-7.965-7.837-7.965c-4.328 0-7.836 3.566-7.836 7.965s3.508 7.965 7.836 7.965Zm39.671 0c4.328 0 7.837-3.566 7.837-7.965s-3.509-7.965-7.837-7.965c-4.328 0-7.837 3.566-7.837 7.965s3.509 7.965 7.837 7.965Zm39.67 0c4.328 0 7.837-3.566 7.837-7.965s-3.509-7.965-7.837-7.965c-4.328 0-7.837 3.566-7.837 7.965s3.509 7.965 7.837 7.965Zm39.67 0c4.329 0 7.837-3.566 7.837-7.965s-3.508-7.965-7.837-7.965c-4.328 0-7.837 3.566-7.837 7.965s3.509 7.965 7.837 7.965Zm39.671 0c4.328 0 7.837-3.566 7.837-7.965s-3.509-7.965-7.837-7.965c-4.329 0-7.837 3.566-7.837 7.965s3.508 7.965 7.837 7.965Zm-357.033 40.824c4.328 0 7.837-3.566 7.837-7.965s-3.509-7.965-7.837-7.965c-4.328 0-7.837 3.566-7.837 7.965s3.509 7.965 7.837 7.965Zm39.67 0c4.328 0 7.837-3.566 7.837-7.965s-3.509-7.965-7.837-7.965c-4.328 0-7.837 3.566-7.837 7.965s3.509 7.965 7.837 7.965Zm39.67 0c4.329 0 7.837-3.566 7.837-7.965s-3.508-7.965-7.837-7.965c-4.328 0-7.836 3.566-7.836 7.965s3.508 7.965 7.836 7.965Zm39.671 0c4.328 0 7.837-3.566 7.837-7.965s-3.509-7.965-7.837-7.965c-4.328 0-7.837 3.566-7.837 7.965s3.509 7.965 7.837 7.965Zm39.67 0c4.328 0 7.837-3.566 7.837-7.965s-3.509-7.965-7.837-7.965c-4.328 0-7.837 3.566-7.837 7.965s3.509 7.965 7.837 7.965Zm39.67 0c4.329 0 7.837-3.566 7.837-7.965s-3.508-7.965-7.837-7.965c-4.328 0-7.836 3.566-7.836 7.965s3.508 7.965 7.836 7.965Zm39.671 0c4.328 0 7.837-3.566 7.837-7.965s-3.509-7.965-7.837-7.965c-4.328 0-7.837 3.566-7.837 7.965s3.509 7.965 7.837 7.965Zm39.67 0c4.328 0 7.837-3.566 7.837-7.965s-3.509-7.965-7.837-7.965c-4.328 0-7.837 3.566-7.837 7.965s3.509 7.965 7.837 7.965Zm39.67 0c4.329 0 7.837-3.566 7.837-7.965s-3.508-7.965-7.837-7.965c-4.328 0-7.837 3.566-7.837 7.965s3.509 7.965 7.837 7.965Zm39.671 0c4.328 0 7.837-3.566 7.837-7.965s-3.509-7.965-7.837-7.965c-4.329 0-7.837 3.566-7.837 7.965s3.508 7.965 7.837 7.965Zm-357.038 40.823c4.328 0 7.837-3.566 7.837-7.965s-3.509-7.965-7.837-7.965c-4.328 0-7.837 3.566-7.837 7.965s3.509 7.965 7.837 7.965Zm39.675.001c4.328 0 7.837-3.566 7.837-7.965s-3.509-7.965-7.837-7.965c-4.328 0-7.837 3.566-7.837 7.965s3.509 7.965 7.837 7.965Zm-39.675 40.823c4.328 0 7.837-3.566 7.837-7.965s-3.509-7.965-7.837-7.965c-4.328 0-7.837 3.566-7.837 7.965s3.509 7.965 7.837 7.965Zm39.675.001c4.328 0 7.837-3.566 7.837-7.965s-3.509-7.965-7.837-7.965c-4.328 0-7.837 3.566-7.837 7.965s3.509 7.965 7.837 7.965Zm79.341 0c4.328 0 7.837-3.566 7.837-7.965s-3.509-7.965-7.837-7.965c-4.328 0-7.837 3.566-7.837 7.965s3.509 7.965 7.837 7.965ZM715.444 93.9697H404.881c-1.525-.0018-2.987-.6182-4.065-1.714-1.078-1.0957-1.684-2.5814-1.686-4.1311V9.82949c.002-1.54965.608-3.0353 1.686-4.13107 1.078-1.09576 2.54-1.71217 4.065-1.71398h310.563c1.524.00181 2.986.61822 4.064 1.71398 1.078 1.09577 1.685 2.58142 1.687 4.13107V88.1247c-.002 1.5496-.609 3.0353-1.687 4.1311-1.078 1.0957-2.54 1.7121-4.064 1.7139ZM404.881 6.32246c-.915.00101-1.792.37083-2.439 1.02831-.647.65747-1.011 1.54891-1.012 2.47872V88.1247c.001.9298.365 1.8212 1.012 2.4787s1.524 1.0273 2.439 1.0283h310.563c.914-.001 1.792-.3708 2.439-1.0283.646-.6575 1.01-1.5489 1.011-2.4787V9.82949c-.001-.92981-.365-1.82125-1.011-2.47872-.647-.65748-1.525-1.0273-2.439-1.02831H404.881Z" fill="#E6E6E6"/>
    <path d="M445.139 73.526c13.34 0 24.155-10.9911 24.155-24.5493 0-13.5581-10.815-24.5492-24.155-24.5492-13.34 0-24.155 10.9911-24.155 24.5492 0 13.5582 10.815 24.5493 24.155 24.5493Z" fill="#074268"/>
    <path d="M500.925 32.6106c-1.068 0-2.092.4311-2.847 1.1984-.755.7673-1.179 1.808-1.179 2.8931 0 1.0852.424 2.1259 1.179 2.8932.755.7673 1.779 1.1984 2.847 1.1984h106.971c1.068 0 2.092-.4311 2.847-1.1984.755-.7673 1.179-1.808 1.179-2.8932 0-1.0851-.424-2.1258-1.179-2.8931-.755-.7673-1.779-1.1984-2.847-1.1984H500.925Zm0 24.5492c-1.068 0-2.092.431-2.847 1.1984-.755.7673-1.179 1.808-1.179 2.8931 0 1.0852.424 2.1259 1.179 2.8932.755.7673 1.779 1.1984 2.847 1.1984h189.788c1.068 0 2.092-.4311 2.847-1.1984.755-.7673 1.179-1.808 1.179-2.8932 0-1.0851-.424-2.1258-1.179-2.8931-.755-.7674-1.779-1.1984-2.847-1.1984H500.925ZM316.314 252.955H5.75115c-1.52475-.002-2.98654-.618-4.0647-1.714C.608289 250.145.00178691 248.66 0 247.11v-78.295c.00178691-1.55.608289-3.035 1.68645-4.131 1.07816-1.096 2.53995-1.712 4.0647-1.714H316.314c1.525.002 2.986.618 4.064 1.714 1.079 1.096 1.685 2.581 1.687 4.131v78.295c-.002 1.55-.608 3.036-1.687 4.131-1.078 1.096-2.539 1.712-4.064 1.714ZM5.75115 165.308c-.91487.001-1.79199.371-2.4389 1.028-.64692.658-1.01079 1.549-1.01179 2.479v78.295c.001.93.36487 1.821 1.01179 2.479.64691.657 1.52403 1.027 2.4389 1.028H316.314c.915-.001 1.792-.371 2.439-1.028.647-.658 1.01-1.549 1.011-2.479v-78.295c-.001-.93-.364-1.821-1.011-2.479-.647-.657-1.524-1.027-2.439-1.028H5.75115Z" fill="#E6E6E6"/>
    <path d="M46.0092 232.511c13.3403 0 24.1548-10.991 24.1548-24.549s-10.8145-24.549-24.1548-24.549c-13.3403 0-24.1548 10.991-24.1548 24.549s10.8145 24.549 24.1548 24.549Z" fill="#074268"/>
    <path d="M101.795 191.596c-1.067 0-2.0914.431-2.8463 1.198-.755.768-1.1792 1.808-1.1792 2.894 0 1.085.4242 2.125 1.1792 2.893.7549.767 1.7793 1.198 2.8463 1.198h111.573c1.067 0 2.091-.431 2.846-1.198.755-.768 1.179-1.808 1.179-2.893 0-1.086-.424-2.126-1.179-2.894-.755-.767-1.779-1.198-2.846-1.198H101.795Zm0 24.549c-1.067 0-2.0914.431-2.8463 1.199-.755.767-1.1792 1.808-1.1792 2.893 0 1.085.4242 2.126 1.1792 2.893.7549.767 1.7793 1.198 2.8463 1.198h189.788c1.068 0 2.092-.431 2.847-1.198.755-.767 1.179-1.808 1.179-2.893 0-1.085-.424-2.126-1.179-2.893-.755-.768-1.779-1.199-2.847-1.199H101.795Z" fill="#E6E6E6"/>
    <path d="M596.97 424.8H286.407c-1.525-.002-2.986-.618-4.064-1.714-1.079-1.096-1.685-2.582-1.687-4.131V340.66c.002-1.55.608-3.036 1.687-4.131 1.078-1.096 2.539-1.713 4.064-1.714H596.97c1.525.001 2.986.618 4.064 1.714 1.079 1.095 1.685 2.581 1.687 4.131v78.295c-.002 1.55-.608 3.035-1.687 4.131-1.078 1.096-2.539 1.712-4.064 1.714Zm-310.563-87.647c-.915.001-1.792.37-2.439 1.028-.647.657-1.01 1.549-1.011 2.479v78.295c.001.93.364 1.821 1.011 2.479.647.657 1.524 1.027 2.439 1.028H596.97c.915-.001 1.792-.371 2.439-1.028.647-.658 1.01-1.549 1.011-2.479V340.66c-.001-.93-.364-1.822-1.011-2.479-.647-.658-1.524-1.027-2.439-1.028H286.407Z" fill="#3F3D56"/>
    <path d="M326.665 404.356c13.341 0 24.155-10.991 24.155-24.549s-10.814-24.549-24.155-24.549c-13.34 0-24.155 10.991-24.155 24.549s10.815 24.549 24.155 24.549Z" fill="#074268"/>
    <path d="M382.451 363.441c-1.067 0-2.091.431-2.846 1.198-.755.768-1.179 1.808-1.179 2.893 0 1.085.424 2.126 1.179 2.894.755.767 1.779 1.198 2.846 1.198h102.371c1.068 0 2.092-.431 2.847-1.198.755-.768 1.179-1.809 1.179-2.894 0-1.085-.424-2.125-1.179-2.893-.755-.767-1.779-1.198-2.847-1.198H382.451Zm0 24.549c-1.067 0-2.091.431-2.846 1.198-.755.768-1.179 1.808-1.179 2.894 0 1.085.424 2.125 1.179 2.893.755.767 1.779 1.198 2.846 1.198h189.788c1.068 0 2.092-.431 2.847-1.198.755-.768 1.179-1.808 1.179-2.893 0-1.086-.424-2.126-1.179-2.894-.755-.767-1.779-1.198-2.847-1.198H382.451Z" fill="#E6E6E6"/>
    <path d="M764.039 404.943c-13.487 41.123-68.662-2.492-68.662-2.492l14.713-155.768c22.07-17.446 45.367-2.492 45.367-2.492l8.582 160.752Z" fill="#EDF7F5"/>
    <path d="m761.143 542.957 18.8.201-4.696 55.078-14.102.001-.002-55.28Z" fill="#FFB8B8"/>
    <path d="M757.548 593.557h27.771c4.692.005 9.19 1.902 12.508 5.274 3.318 3.372 5.185 7.944 5.19 12.713v.584h-45.469v-18.571Z" fill="#074268"/>
    <path d="m710.176 542.957-20.812-.002 6.708 55.281 14.102.001.002-55.28Z" fill="#FFB8B8"/>
    <path d="M668.3 612.128v-.585c.001-4.77 1.865-9.345 5.185-12.719 3.319-3.373 7.821-5.268 12.515-5.267l27.771.001-.001 18.572-45.47-.002Zm91.574-23.433-24.63-145.919-22.82 144.038-23.121 1.306-6.165-192.988.465-.105c3.822-.87 93.786-20.952 108.534 7.776l.075.146-12.309 186.402-20.029-.656Z" fill="#074268"/>
    <path d="M733.77 228.429c15.603 0 28.251-12.855 28.251-28.712s-12.648-28.712-28.251-28.712c-15.602 0-28.25 12.855-28.25 28.712s12.648 28.712 28.25 28.712Z" fill="#FFB8B8"/>
    <path d="M757.504 417.249c-3.311-.932-5.698-4.797-7.51-12.164-.312-1.27-29.643-128.254-4.839-151.26l5.718-16.142 7.824 5.302c2.769.026 31.081.754 33.5 19.198 2.369 18.053 8.817 139.011 2.336 146.535-.127.165-.289.3-.473.395-.184.095-.387.147-.594.153-6.568 0-8.562-7.407-9.031-9.768-1.561.657-6.213 3.073-13.858 10.843-4.736 4.813-8.449 7.12-11.517 7.12-.525.001-1.049-.07-1.556-.212Z" fill="#074268"/>
    <path d="M696.196 410.341c-7.647-7.772-12.299-10.187-13.858-10.843-.469 2.361-2.463 9.768-9.032 9.768-.206-.006-.409-.058-.593-.153s-.346-.23-.473-.395c-6.481-7.524-.033-128.481 2.336-146.535 2.419-18.444 30.731-19.172 33.499-19.198l7.825-5.302 5.718 16.142c24.803 23.004-4.527 149.99-4.839 151.26-1.812 7.367-4.199 11.232-7.51 12.164-.507.142-1.031.213-1.556.212-3.068 0-6.782-2.308-11.517-7.12Zm60.898-194.223c4.78-3.494 8.399-8.384 10.377-14.02 1.978-5.635 2.221-11.749.697-17.528-1.525-5.779-4.744-10.95-9.23-14.824-4.487-3.875-10.027-6.269-15.885-6.865-2.601-.265-5.402-.225-7.558-1.726-1.916-1.334-2.947-3.647-4.708-5.186-1.118-.879-2.403-1.514-3.774-1.865-1.37-.351-2.798-.411-4.193-.176-2.784.488-5.482 1.389-8.008 2.674-6.264 2.839-12.923 6.332-15.774 12.672-2.469 5.492-1.379 12.264 2.116 17.147 3.675 4.832 9.034 8.047 14.972 8.984 5.903.896 11.931.345 17.581-1.609 3.729-1.192 7.41-2.817 11.316-2.95 3.049-.103 6.06.717 8.649 2.357 2.589 1.641 4.639 4.027 5.89 6.854 1.251 2.828 1.647 5.971 1.135 9.027-.511 3.057-1.905 5.891-4.004 8.14" fill="#074268"/>
    <path d="M603.113 386.921c1.631-.039 3.239-.403 4.731-1.073 1.493-.67 2.841-1.632 3.967-2.831 1.127-1.2 2.01-2.613 2.599-4.159.589-1.546.873-3.195.835-4.853l16.475-28.25-12.729-11.861-17.354 27.835c-3.202.313-6.16 1.875-8.252 4.36-2.091 2.484-3.153 5.696-2.961 8.959.191 3.264 1.62 6.325 3.987 8.539 2.367 2.215 5.486 3.41 8.702 3.334ZM794.25 417.87c1.367-.905 2.544-2.076 3.466-3.444.922-1.368 1.569-2.907 1.906-4.53.336-1.622.355-3.296.055-4.926-.301-1.63-.914-3.184-1.805-4.573l-.63-32.833-16.967-3.271-.332 32.95c-2.56 1.98-4.265 4.892-4.756 8.123-.491 3.231.27 6.529 2.124 9.202 1.853 2.672 4.654 4.509 7.813 5.125 3.16.616 6.431-.037 9.126-1.823Z" fill="#FFB8B8"/>
    <path d="m608.125 341.496-.192-.311.19-.31c24.711-40.33 76.581-90.708 77.103-91.212l.164-.159 6.406-.066 6.926 17.535c-2.156 4.215-60.267 86.635-67.941 92.101-.611.43-1.304.725-2.034.865-.73.139-1.481.122-2.204-.053-1.279-.3-2.495-.826-3.594-1.555-7.081-4.458-14.461-16.252-14.824-16.835Zm168.921 46.02c-.688-.239-1.32-.62-1.856-1.12-.536-.5-.964-1.107-1.257-1.784-3.7-8.773 12.157-119.593 12.834-124.306l.128-.891 5.36 3.452.053.235c.158.708 15.772 71.306 11.54 118.217l-.03.336-.301.142c-.645.303-13.651 6.374-22.319 6.374-1.411.037-2.818-.184-4.152-.655Z" fill="#074268"/>
  </g>
  <defs>
    <clipPath id="a">
      <path fill="#fff" d="M0 0h885v613H0z"/>
    </clipPath>
  </defs>
</svg>