<svg viewBox="0 0 462 727" fill="none" xmlns="http://www.w3.org/2000/svg">
<path d="M459 226C459 349.159 359.159 449 236 449C112.84 449 12.9999 349.159 12.9999 226C12.9999 102.84 112.84 3 236 3C359.159 3 459 102.84 459 226Z" stroke="#EDF7F5" stroke-width="6"/>
<path d="M424.667 340.5C424.667 444.33 340.496 528.5 236.667 528.5C132.837 528.5 48.6667 444.33 48.6667 340.5C48.6667 236.67 132.837 152.5 236.667 152.5C340.496 152.5 424.667 236.67 424.667 340.5Z" fill="#074268"/>
<circle cx="0.000488281" cy="296" r="270" fill="#074268"/>
<path d="M211.247 384.713C176.847 264.731 51.6949 195.353 -68.2873 229.753C-188.27 264.153 -257.648 389.305 -223.247 509.287C-188.847 629.269 -63.6952 698.647 56.287 664.247" stroke="#EDF7F5" stroke-width="6"/>
</svg>
