<svg width="584" height="487" viewBox="0 0 584 487" fill="none" xmlns="http://www.w3.org/2000/svg">
<g clip-path="url(#clip0_119_408)">
<path d="M357.929 330.62H84.3965C80.0295 330.615 75.8427 328.875 72.7547 325.782C69.6667 322.689 67.9297 318.495 67.9247 314.12V117.12C67.9296 112.745 69.6666 108.551 72.7546 105.458C75.8426 102.365 80.0294 100.625 84.3965 100.62H357.929C362.296 100.625 366.482 102.365 369.57 105.458C372.658 108.552 374.395 112.745 374.4 117.12V314.12C374.395 318.495 372.658 322.689 369.57 325.782C366.482 328.875 362.296 330.615 357.929 330.62Z" fill="#E6E6E6"/>
<path d="M89.4527 317.467H352.872C354.99 317.467 357.022 316.624 358.519 315.124C360.017 313.624 360.859 311.589 360.859 309.467V121.773C360.859 119.651 360.017 117.616 358.519 116.116C357.022 114.616 354.99 113.773 352.872 113.773H89.4527C87.3346 113.773 85.3032 114.616 83.8055 116.116C82.3077 117.616 81.4663 119.651 81.4663 121.773V309.467C81.4663 311.589 82.3077 313.624 83.8055 315.124C85.3032 316.624 87.3346 317.467 89.4527 317.467Z" fill="white"/>
<path d="M321.473 172.093H153.21C152.421 172.093 151.64 172.249 150.91 172.551C150.181 172.854 149.519 173.297 148.961 173.856C148.403 174.415 147.96 175.079 147.658 175.809C147.356 176.54 147.201 177.322 147.201 178.113C147.201 178.903 147.356 179.686 147.658 180.417C147.96 181.147 148.403 181.811 148.961 182.37C149.519 182.928 150.181 183.372 150.91 183.674C151.64 183.977 152.421 184.133 153.21 184.133H321.473C323.067 184.133 324.595 183.498 325.722 182.37C326.849 181.241 327.482 179.709 327.482 178.113C327.482 176.516 326.849 174.985 325.722 173.856C324.595 172.727 323.067 172.093 321.473 172.093Z" fill="#E6E6E6"/>
<path d="M153.21 209.137C152.421 209.137 151.64 209.293 150.91 209.596C150.181 209.898 149.519 210.341 148.961 210.9C148.403 211.459 147.96 212.123 147.658 212.853C147.356 213.584 147.201 214.366 147.201 215.157C147.201 215.947 147.356 216.73 147.658 217.461C147.96 218.191 148.403 218.855 148.961 219.414C149.519 219.973 150.181 220.416 150.91 220.718C151.64 221.021 152.421 221.177 153.21 221.177H321.473C323.067 221.177 324.595 220.542 325.722 219.414C326.849 218.285 327.482 216.754 327.482 215.157C327.482 213.56 326.849 212.029 325.722 210.9C324.595 209.772 323.067 209.137 321.473 209.137H153.21Z" fill="#E6E6E6"/>
<path d="M153.21 246.182C151.616 246.182 150.088 246.816 148.961 247.945C147.834 249.074 147.201 250.605 147.201 252.201C147.201 253.798 147.834 255.329 148.961 256.458C150.088 257.587 151.616 258.221 153.21 258.221H321.473C323.067 258.221 324.595 257.587 325.722 256.458C326.849 255.329 327.482 253.798 327.482 252.201C327.482 250.605 326.849 249.074 325.722 247.945C324.595 246.816 323.067 246.182 321.473 246.182H153.21Z" fill="#E6E6E6"/>
<path d="M121.314 185.985C125.399 185.985 128.71 182.668 128.71 178.576C128.71 174.484 125.399 171.167 121.314 171.167C117.229 171.167 113.918 174.484 113.918 178.576C113.918 182.668 117.229 185.985 121.314 185.985Z" fill="#074268"/>
<path d="M121.314 223.029C125.399 223.029 128.71 219.712 128.71 215.62C128.71 211.528 125.399 208.211 121.314 208.211C117.229 208.211 113.918 211.528 113.918 215.62C113.918 219.712 117.229 223.029 121.314 223.029Z" fill="#E6E6E6"/>
<path d="M121.314 260.073C125.399 260.073 128.71 256.756 128.71 252.664C128.71 248.572 125.399 245.255 121.314 245.255C117.229 245.255 113.918 248.572 113.918 252.664C113.918 256.756 117.229 260.073 121.314 260.073Z" fill="#E6E6E6"/>
<path d="M254.445 178.113C254.445 178.903 254.29 179.686 253.988 180.416C253.686 181.147 253.243 181.81 252.685 182.369C252.127 182.928 251.465 183.372 250.735 183.674C250.006 183.977 249.225 184.133 248.436 184.133H153.427C151.942 184.154 150.5 183.638 149.366 182.679C148.231 181.72 147.481 180.382 147.253 178.913C147.141 178.063 147.211 177.198 147.459 176.377C147.707 175.556 148.127 174.798 148.691 174.152C149.254 173.507 149.949 172.989 150.729 172.634C151.508 172.279 152.354 172.095 153.21 172.093H248.436C250.03 172.093 251.558 172.727 252.685 173.856C253.812 174.985 254.445 176.516 254.445 178.113V178.113Z" fill="#074268"/>
<path d="M221.162 75.3153C234.438 75.3153 245.2 64.5349 245.2 51.2366C245.2 37.9384 234.438 27.158 221.162 27.158C207.887 27.158 197.125 37.9384 197.125 51.2366C197.125 64.5349 207.887 75.3153 221.162 75.3153Z" fill="#E6E6E6"/>
<path d="M233.026 53.1652C234.089 46.6019 229.64 40.4179 223.088 39.3529C216.536 38.2878 210.362 42.7449 209.299 49.3082C208.236 55.8715 212.685 62.0556 219.237 63.1206C225.789 64.1857 231.963 59.7285 233.026 53.1652Z" fill="white"/>
<path d="M448.351 474.24L436.939 474.239L431.511 430.143L448.355 430.145L448.351 474.24Z" fill="#FFB8B8"/>
<path d="M428.787 470.973H450.797V484.855H414.928C414.928 483.032 415.287 481.227 415.983 479.542C416.68 477.858 417.701 476.328 418.987 475.039C420.274 473.75 421.802 472.727 423.483 472.029C425.165 471.332 426.967 470.973 428.787 470.973Z" fill="#074268"/>
<path d="M509.868 474.24L498.454 474.239L493.028 430.143L509.872 430.145L509.868 474.24Z" fill="#FFB8B8"/>
<path d="M490.303 470.973H512.313V484.855H476.444C476.444 483.032 476.803 481.227 477.499 479.542C478.196 477.858 479.217 476.328 480.503 475.039C481.79 473.75 483.318 472.727 484.999 472.029C486.681 471.332 488.483 470.973 490.303 470.973Z" fill="#074268"/>
<path d="M476.444 160.765C489.985 160.765 500.963 149.769 500.963 136.204C500.963 122.64 489.985 111.643 476.444 111.643C462.902 111.643 451.925 122.64 451.925 136.204C451.925 149.769 462.902 160.765 476.444 160.765Z" fill="#FFB8B8"/>
<path d="M392.605 296.382C392.776 295.022 393.243 293.716 393.973 292.557C394.702 291.397 395.677 290.411 396.828 289.67C397.979 288.928 399.278 288.448 400.634 288.264C401.99 288.079 403.37 288.195 404.676 288.603L418.379 272.149L430.392 278.051L410.716 301.016C409.886 303.169 408.297 304.943 406.25 306.001C404.202 307.059 401.838 307.328 399.606 306.757C397.373 306.186 395.428 304.814 394.137 302.902C392.847 300.99 392.302 298.67 392.605 296.382Z" fill="#FFB8B8"/>
<path d="M510.537 313.024C509.953 311.784 509.647 310.431 509.642 309.06C509.636 307.689 509.931 306.334 510.505 305.09C511.079 303.845 511.918 302.742 512.964 301.858C514.01 300.973 515.236 300.33 516.557 299.971L519.308 278.721L532.608 277.247L528.302 307.201C528.755 309.464 528.364 311.815 527.203 313.808C526.042 315.802 524.191 317.299 522.001 318.017C519.811 318.735 517.435 318.623 515.322 317.703C513.209 316.782 511.506 315.118 510.537 313.024L510.537 313.024Z" fill="#FFB8B8"/>
<path d="M496.935 182.595C498.239 180.918 499.961 179.615 501.928 178.818C503.895 178.021 506.037 177.758 508.139 178.055C510.24 178.352 512.226 179.199 513.895 180.511C515.565 181.822 516.86 183.552 517.649 185.525L537.746 235.765C539.8 240.9 540.455 246.488 539.644 251.959L533.098 296.118C533.013 296.687 532.807 297.232 532.493 297.715C532.179 298.197 531.764 298.606 531.278 298.913C530.792 299.221 530.245 299.419 529.675 299.495C529.105 299.571 528.525 299.523 527.976 299.354L519.351 296.701C518.458 296.426 517.689 295.846 517.179 295.063C516.669 294.279 516.449 293.34 516.557 292.411C519.601 266.414 515.578 240.076 504.913 216.18L495.439 194.952C494.546 192.95 494.213 190.742 494.477 188.565C494.74 186.389 495.59 184.325 496.935 182.595Z" fill="#2C8BC3"/>
<path d="M482.414 160.764C486.104 160.844 489.769 160.141 493.169 158.701C496.568 157.26 499.625 155.116 502.138 152.408C504.652 149.7 506.564 146.49 507.751 142.989C508.937 139.488 509.371 135.775 509.022 132.094C508.674 128.413 507.552 124.847 505.731 121.632C503.909 118.416 501.428 115.623 498.452 113.436C495.476 111.249 492.072 109.718 488.463 108.943C484.854 108.168 481.122 108.166 477.512 108.939C472.12 105.659 465.851 103.453 459.568 104.014C453.285 104.575 447.071 108.312 444.721 114.176C442.372 120.04 444.896 127.77 450.738 130.153C454.484 131.681 458.713 130.94 462.71 130.324C466.707 129.708 471.068 129.306 474.546 131.372C478.025 133.438 479.589 138.977 476.473 141.56C474.822 142.984 473.643 144.877 473.092 146.989C472.542 149.101 472.648 151.33 473.394 153.381C474.96 157.437 479.234 160.695 482.414 160.764Z" fill="#074268"/>
<path d="M512.835 295.411L517.184 460.751C517.198 461.302 517.099 461.85 516.892 462.361C516.685 462.872 516.375 463.334 515.981 463.719C515.587 464.104 515.118 464.404 514.603 464.598C514.088 464.793 513.538 464.879 512.989 464.851L498.661 464.119C497.747 464.072 496.876 463.712 496.195 463.099C495.515 462.486 495.065 461.657 494.921 460.752L477.879 353.363C477.806 352.903 477.575 352.484 477.227 352.176C476.878 351.868 476.434 351.692 475.969 351.678C475.505 351.663 475.05 351.811 474.683 352.097C474.316 352.382 474.06 352.786 473.959 353.241L450.891 456.637C450.767 457.19 450.528 457.71 450.189 458.163C449.85 458.616 449.419 458.992 448.924 459.266C448.429 459.54 447.882 459.705 447.319 459.751C446.755 459.798 446.188 459.723 445.656 459.534L431.436 458.664C430.614 458.371 429.91 457.816 429.432 457.084C428.954 456.352 428.729 455.483 428.791 454.611L441.204 293.846L512.835 295.411Z" fill="#074268"/>
<path d="M519.815 216.881C522.213 191.825 503.823 169.163 478.759 167.38C467.959 166.612 451.194 166.337 445.667 180.516C429.018 223.23 458.163 222.192 448.121 259.199C438.08 296.206 429.211 298.327 442.989 301C456.767 303.672 518.726 319.447 516.182 293.399C514.618 277.389 517.422 241.873 519.815 216.881Z" fill="#2C8BC3"/>
<path d="M448.615 176.172C450.594 175.404 452.74 175.174 454.836 175.502C456.933 175.831 458.905 176.708 460.555 178.045C462.205 179.382 463.474 181.131 464.233 183.116C464.993 185.101 465.216 187.251 464.881 189.35L457.055 238.341C455.717 246.718 452.181 254.589 446.808 261.148L421.392 292.172C421.027 292.617 420.571 292.978 420.054 293.23C419.537 293.483 418.971 293.62 418.397 293.633C417.822 293.646 417.251 293.535 416.723 293.307C416.195 293.079 415.722 292.739 415.338 292.311L409.3 285.595C408.675 284.9 408.313 284.007 408.278 283.071C408.242 282.136 408.535 281.218 409.105 280.477L410.883 278.165C425.669 258.944 434.997 236.079 437.881 211.986L440.992 186.002C441.253 183.825 442.1 181.76 443.443 180.028C444.786 178.296 446.574 176.963 448.615 176.172Z" fill="#2C8BC3"/>
</g>
<defs>
<clipPath id="clip0_119_408">
<rect width="584" height="487" fill="white"/>
</clipPath>
</defs>
</svg>
