<svg viewBox="0 0 557 553" fill="none" xmlns="http://www.w3.org/2000/svg">
  <path d="m476.592 518.947 3.414-10.927c-23.967-24.679-323.719-152.314-456.932-155.186-2.6915-.054-3.7586 3.166-1.6133 4.787C103.314 419.153 353.231 499.32 476.592 518.947Z" fill="#2C8BC3"/>
  <path d="m345.464 294.759 22.521-17.397c1.145-.883 2.742-.869 3.868.034l8.325 6.673c1.59 1.276 1.557 3.712-.071 4.941l-21.589 16.312c-1.023.77-2.412.843-3.506.18l-9.252-5.588c-1.885-1.137-2.037-3.812-.296-5.155Z" fill="#fff"/>
  <path d="M280.076 114.404c4.936-4.687 8.575-10.686 8.824-17.8138.724-20.5359-28.128-19.0472-34.733-9.3425-1.982 2.9098-3.556 7.301-4.604 12.0909-1.751 1.6844-4.899 5.5324-4.954 6.5014-.052.936 1.177 2.624 3.551 4.137-.354 7.736.891 14.484 4.239 15.737 2.768 1.032 9.019-.127 15.58-3.192l-1.877 7.494-5.602-.003s-.851 4.096-2.198 10.62c-2.32 2.393-5.412 5.711-8.788 9.333l-.003.003c-5.313 5.699-11.326 12.148-16.129 16.919-12.216 12.137-33.251-1.927-47.773-11.638-3.302-2.209-6.265-4.193-8.714-5.591-5.411-6.665-10.767-11.86-16.067-15.586-1.628-.716-4.487-1.182-1.891 3.625 2.596 4.806 5.109 9.978 3.72 11.421-.611.631-1.604.583-2.662.528-1.359-.065-2.833-.142-3.773 1.213-1.116 1.603 4.654 4.271 17.315 8.006l24.612 21.651c12.925 9.966 25.392 13.725 32.523 12.036 5.83-1.38 18.8-11.961 18.8-11.961-2.365 11.786-4.839 26.421-6.436 35.88l-.004.009c-.43 2.548-.798 4.722-1.081 6.36l42.959 7.454c3.475-14.879 8.964-37.017 12.35-50.574l20.38 37.453c15.769 38.657 24.249 59.157 25.443 61.502 2.322 4.57-.326 11.734-2.121 16.593v.003c-.277.751-.536 1.445-.75 2.067 3.173 1.1 4.497-.68 5.894-2.556 1.575-2.122 3.243-4.36 7.771-2.714 1.749.635 3.423 1.422 5.054 2.189 5.643 2.654 10.827 5.093 17.177.369 1.007-.746 1.962-3.321-1.026-5.009-7.434-4.2-18.283-11.741-19.892-14.394-2.192-3.618-8.07-23.573-17.624-59.864-11.07-39.728-37.52-73.444-49.36-85.339l-.019.001h-6.443l-1.668-15.618Zm-83.064 286.238c-17.597-56.006-26.201-84.423-25.824-85.255.177-.39 5.707-2.803 14.394-6.591 16.787-7.32 45.337-19.781 69.689-32.663l-34.949-33.704c-46.349 33.623-71.082 54.107-74.184 61.456-2.379 5.632 10.147 36.6 37.572 92.894 0 0-18.544 3.091-27.61 4.176-2.24.267-3.841 6.062 4.29 6.921 4.634.489 9.565 1.133 14.206 1.739 8.51 1.104 16.055 2.089 18.981 1.765 5.757-.625 4.463-7.453 3.435-10.738Zm103.056-120.629 17.212 71.816 38.843 108.457c1.58 4.617-3.033 6.003-5.96 6.33-1.442.159-28.927.47-32.618-2.252-8.08-5.955.75-7.103.75-7.103l21.723-5.181-83.292-162.058 43.342-10.009Z" fill="#FFB8B8"/>
  <path d="M268.449 76.7673c3.065-.1767 11.212.3406 12.71.4987.955.1009 1.969.4282 2.628-.3897.539-.667.497-1.9021.725-2.7215.261-.9544.592-1.8857.923-2.8139.944-2.648 2.21-5.1267 3.857-7.4046 3.089-4.2753 7.285-7.436 12.328-8.9996 5.568-1.7286 11.653-1.6148 17.334-.5428 6.08 1.1424 11.416 3.7517 17.004 6.268 5.327 2.3975 11.029 3.7235 16.894 3.4457 5.909-.2793 10.633-2.9656 15.855-5.4389 5.341-2.533 11.292-3.9284 17.176-2.8444 5.496 1.0146 10.359 3.8415 14.618 7.382 3.984 3.3132 7.157 7.1261 8.641 12.177 1.601 5.4347.994 11.1524-3.025 15.3799-5.824 6.1298-15.51 6.8539-23.398 5.8478-4.565-.5828-8.969-1.8913-13.126-3.8662-5.544-2.6313-10.159-6.5933-15.253-9.9481-2.389-1.5742-4.89-2.9242-7.548-3.9854-2.579-1.0339-5.16-1.6528-7.736-.3007-2.725 1.4276-5.184 2.8582-8.209 3.6119-2.903.7258-5.921.9863-8.897.65-5.788-.6553-11.306-3.0666-16.803-4.8713-4.484-1.4681-9.289-2.9701-14.067-2.5178-1.994.1923-4.928.7071-5.849 2.6588 11.639 3.4038 14.746 18.5719 10.265 28.9888-2.419 5.624-13.987 11.273-17.882 7.771-2.47-2.218-.579-4.59.65-6.157 2.35-3 3.474-7.055-.013-9.6857-3.005-2.2688-6.863 1.9567-6.928 1.9467-.874-.165-8.041-5.2805-12.628-12.1289-5.215-.2391-5.642-3.7338-4.108-6.3982 1.531-2.6647 9.625-5.3697 13.862-5.6116Z" fill="#074268"/>
  <path d="M281.185 96.5686c1.755-5.9521 3.844-18.5195-1.744-22.9808-5.053-4.0335-11.657-1.2309-16.964 4.1446.541-.1191 1.077-.2482 1.61-.3745 1.126-.2681 2.221-.5271 3.239-.6588 3.214-1.9708 7.075-2.6521 9.42-.2736 2.77 2.8009 1.403 11.485-1.206 18.4265-2.895.8651-6.452 2.9256-7.997 6.373-2.472 5.527 1.17 12.533 2.967 13.34 2.052.919 9.447-1.152 11.919-6.679 1.759-3.928.301-8.6584-1.244-11.3174Z" fill="#fff"/>
  <path d="m292.837 127.595-32.188.98-23.864 29.958 10.648 12.395-.541 18.9 46.828 12.234 5.545-11.079 4.86 9.263 26.949-20.486-38.237-52.165Zm-7.933 102.697-42.959-7.454-49.616 37.147 46.508 29.514 11.339-6.004 6.196 13.716 49.994-7.783-21.462-59.136Z" fill="#2C8BC3"/>
  <path d="M273.656 104.596c-2.65 9.801-6.012 38.991-26.961 45.934-6.438 2.131-11.954-1.998-11.924-7.793.075-13.862 28.704-15.979 18.023 32.002-16.464 73.947 49.107 87.232 93.431 72.392 24.542-8.213 39.374 17.024 27.731 32.35" stroke="#fff" stroke-width="3.13"/>
</svg>