<svg width="1920" height="359" viewBox="0 0 1920 359" fill="none" xmlns="http://www.w3.org/2000/svg">
<path d="M-1.51857e-06 359L-2.23779e-07 52.9029C119.566 23.1176 239.132 -6.66764 352 1.3135C464.868 9.29463 571.037 55.0422 722.667 73.5387C874.297 92.0352 1071.39 83.2806 1201.33 70.0994C1331.28 56.9182 1394.08 39.3103 1502.67 35.7064C1611.25 32.1026 1765.63 42.5027 1920 52.9029L1920 359L-1.51857e-06 359Z" fill="#074268" fill-opacity="0.533333"/>
<path d="M-1.15501e-06 359L-3.54962e-07 169.863C89.8628 141.552 179.726 113.242 322.667 134.576C465.608 155.91 661.627 226.889 805.333 220.676C949.04 214.463 1040.43 131.058 1146.67 100.701C1252.9 70.3441 1373.97 93.0357 1505.33 113.404C1636.7 133.773 1778.35 151.818 1920 169.863L1920 359L-1.15501e-06 359Z" fill="#074268"/>
</svg>
